<svg xmlns="http://www.w3.org/2000/svg" fill="none" viewBox="0 0 550 298">
  <rect width="275" height="224" x="35" y="47" fill="#D9D9D9" rx="3"/>
  <rect width="260" height="60" x="42" y="78" fill="#DCB9F2" rx="5" style="mix-blend-mode:darken"/>
  <rect width="260" height="39" x="42" y="139" fill="#B9DAF2" rx="5" style="mix-blend-mode:darken"/>
  <path fill="#000" d="M50.2 68.58V72h-1.08v-8.53h2.76c.39 0 .75.07 1.09.18.34.11.64.28.9.5.26.2.46.47.61.79.15.32.23.68.23 1.09 0 .4-.08.77-.23 1.09a2.3 2.3 0 0 1-.6.79 2.98 2.98 0 0 1-2 .67H50.2Zm0-.9h1.68a1.8 1.8 0 0 0 1.25-.44 1.53 1.53 0 0 0 .49-1.2 1.73 1.73 0 0 0-.49-1.22 1.63 1.63 0 0 0-.55-.34 2.07 2.07 0 0 0-.7-.12H50.2v3.33Zm11.58.55a6.28 6.28 0 0 1-.3 1.82c-.11.29-.24.56-.4.8a2.56 2.56 0 0 1-2.27 1.26 2.34 2.34 0 0 1-1.7-.6c-.22-.18-.41-.4-.57-.65a4.96 4.96 0 0 1-.7-2.63v-.98a4.94 4.94 0 0 1 .7-2.63 2.48 2.48 0 0 1 2.27-1.27 2.65 2.65 0 0 1 1.7.6 4.1 4.1 0 0 1 1.18 2.37c.05.32.08.63.09.93v.98Zm-1.08-.99a7.27 7.27 0 0 0-.16-1.3 3.61 3.61 0 0 0-.22-.6c-.1-.2-.21-.38-.36-.54a1.56 1.56 0 0 0-1.16-.48 1.54 1.54 0 0 0-1.16.5c-.14.14-.26.32-.35.52a4.84 4.84 0 0 0-.4 1.9v.99a4.65 4.65 0 0 0 .4 1.92 1.92 1.92 0 0 0 .85.88c.2.09.42.13.67.13a1.56 1.56 0 0 0 1.17-.5c.14-.14.25-.32.34-.51a3.75 3.75 0 0 0 .34-1.28c.03-.23.04-.44.04-.64v-.99Zm7.2 2.6c0-.26-.06-.48-.18-.66a1.6 1.6 0 0 0-.46-.46c-.19-.12-.4-.22-.62-.3a15.43 15.43 0 0 1-1.57-.57 4.3 4.3 0 0 1-.84-.5 2.5 2.5 0 0 1-.63-.71c-.16-.27-.24-.6-.24-.96a2 2 0 0 1 .24-.99c.16-.29.37-.53.64-.73a3.3 3.3 0 0 1 2.96-.42c.34.12.65.3.92.51a2.47 2.47 0 0 1 .89 1.87h-1.12c-.03-.24-.09-.46-.18-.66s-.2-.38-.36-.53a1.52 1.52 0 0 0-.53-.33 2.15 2.15 0 0 0-1.3-.04c-.2.06-.37.15-.52.27-.16.12-.28.26-.38.43a1.27 1.27 0 0 0 .06 1.23c.12.17.27.3.46.42.18.12.38.22.6.3l.61.2c.32.1.63.22.95.36.32.14.6.31.87.53.26.2.46.44.62.73.16.29.24.62.24 1s-.09.72-.26 1c-.17.29-.39.53-.65.71a3 3 0 0 1-.92.44 3.82 3.82 0 0 1-2.22-.07 3 3 0 0 1-1.63-1.37c-.15-.3-.23-.63-.24-1h1.1c.04.26.11.5.22.7a1.79 1.79 0 0 0 1.01.84 2.48 2.48 0 0 0 1.36.04c.21-.05.4-.14.55-.25a1.18 1.18 0 0 0 .54-1.03Zm8.5-5.45h-2.64V72H72.7v-7.6h-2.63v-.93h6.32v.92Zm10.08 8.34h-.97l3.56-9.26h.97l-3.56 9.26Zm18.34-.73h-1.03v-3.94h-3.5V72h-1.01v-8.53h1.02v3.67h3.5v-3.67h1.02V72Zm7.61-7.6h-2.64V72h-1.05v-7.6h-2.64v-.93h6.33v.92Zm7.2 0H117V72h-1.06v-7.6h-2.63v-.93h6.33v.92Zm2.64 4.18V72h-1.08v-8.53h2.77c.38 0 .74.07 1.08.18.34.11.64.28.9.5.26.2.46.47.61.79.15.32.23.68.23 1.09 0 .4-.08.77-.23 1.09a2.3 2.3 0 0 1-.6.79 2.98 2.98 0 0 1-2 .67h-1.68Zm0-.9h1.69a1.8 1.8 0 0 0 1.24-.44 1.53 1.53 0 0 0 .49-1.2c0-.26-.04-.49-.13-.7a1.53 1.53 0 0 0-.91-.86 2.06 2.06 0 0 0-.7-.12h-1.68v3.33Zm7.46 5.05h-.98l3.57-9.26h.96l-3.55 9.26Zm9.29-.73h-1.08v-7.15l-2.24.85v-.99l3.23-1.24h.09V72Zm5.58-.7c0-.23.07-.43.2-.6.15-.16.36-.24.65-.24.28 0 .5.08.64.25.14.16.22.35.22.59 0 .23-.08.42-.22.58a.88.88 0 0 1-.64.23c-.28 0-.5-.08-.64-.23a.85.85 0 0 1-.21-.58Zm8.83.7h-1.08v-7.15l-2.23.85v-.99l3.23-1.24h.08V72ZM54.37 92h-1.03v-3.94h-3.5V92h-1.01v-8.53h1.02v3.67h3.5v-3.67h1.02V92Zm1.55-3.23c0-.46.07-.88.2-1.27.13-.4.33-.74.58-1.03a2.68 2.68 0 0 1 2.1-.93 2.8 2.8 0 0 1 2.12.93c.25.3.44.64.57 1.03.13.4.2.81.2 1.27v.13c0 .46-.07.88-.2 1.27-.13.4-.32.73-.57 1.02a2.66 2.66 0 0 1-2.11.93c-.45 0-.85-.08-1.21-.25a2.6 2.6 0 0 1-.9-.68 3.03 3.03 0 0 1-.58-1.02c-.13-.39-.2-.81-.2-1.27v-.13Zm1.09.13c0 .31.03.61.1.9.08.28.2.53.35.74a1.57 1.57 0 0 0 1.35.7 1.57 1.57 0 0 0 1.35-.7c.15-.21.26-.46.33-.74.08-.29.11-.59.11-.9v-.13c0-.3-.04-.6-.11-.88a2.35 2.35 0 0 0-.34-.75 1.7 1.7 0 0 0-.57-.51 1.5 1.5 0 0 0-.78-.2c-.3 0-.56.07-.79.2-.22.12-.4.3-.55.5a2.1 2.1 0 0 0-.34.76c-.08.28-.11.57-.11.88v.13Zm10.64 1.42a.76.76 0 0 0-.08-.35.77.77 0 0 0-.26-.28 1.97 1.97 0 0 0-.48-.24c-.2-.07-.45-.14-.74-.2-.37-.07-.7-.16-1-.27-.3-.1-.55-.23-.76-.38a1.63 1.63 0 0 1-.5-.5c-.12-.2-.17-.44-.17-.7 0-.26.06-.5.18-.72.12-.23.29-.42.5-.6.23-.16.49-.3.79-.4a3.5 3.5 0 0 1 2.05.02c.32.1.58.24.8.42a1.87 1.87 0 0 1 .69 1.4h-1.09a.82.82 0 0 0-.1-.4 1.14 1.14 0 0 0-.3-.35 1.5 1.5 0 0 0-.45-.24 2.2 2.2 0 0 0-1.2-.02 1.5 1.5 0 0 0-.44.2.86.86 0 0 0-.26.3.76.76 0 0 0-.09.36c0 .12.02.23.07.33s.13.18.25.26c.11.08.26.15.45.21.2.07.45.13.74.19.4.08.74.17 1.05.28.3.1.57.23.78.38.21.16.37.33.48.53.11.2.17.43.17.7 0 .27-.06.53-.2.76-.12.23-.3.43-.52.6-.23.16-.5.28-.81.37a3.78 3.78 0 0 1-2.19-.03 2.71 2.71 0 0 1-.85-.47 1.77 1.77 0 0 1-.72-1.44h1.08c.02.23.08.42.18.57.1.15.24.28.4.37.14.1.31.16.5.2a2.72 2.72 0 0 0 1.31-.04c.22-.07.39-.17.5-.29a.8.8 0 0 0 .18-.24.71.71 0 0 0 .06-.3Zm5.56-6.2v1.54h2.41v.84h-2.41v3.44c0 .25.03.45.1.61a.94.94 0 0 0 .62.59c.15.04.3.06.46.06a3.9 3.9 0 0 0 1.06-.13l.26-.06.15.77c-.09.05-.2.1-.33.14a3.7 3.7 0 0 1-.9.17l-.5.03a2.6 2.6 0 0 1-.8-.12 1.65 1.65 0 0 1-.63-.39 1.8 1.8 0 0 1-.43-.66 3 3 0 0 1-.15-1V86.5h-1.67v-.84h1.67v-1.53h1.09Zm6.82 7.18c0-.23.07-.43.2-.6.15-.16.36-.24.65-.24.28 0 .5.08.64.25.14.16.22.35.22.59 0 .23-.08.42-.22.58a.88.88 0 0 1-.64.23c-.28 0-.5-.08-.64-.23a.85.85 0 0 1-.21-.58Zm0-5.14c0-.23.07-.42.2-.59.15-.16.36-.24.65-.24.28 0 .5.08.64.24.14.16.22.36.22.6a.8.8 0 0 1-.22.57.84.84 0 0 1-.64.24c-.28 0-.5-.08-.64-.24a.85.85 0 0 1-.21-.58Zm15.03 5.96c-.44 0-.85-.08-1.23-.23a2.8 2.8 0 0 1-1.57-1.61 3.3 3.3 0 0 1-.23-1.23v-.24c0-.52.09-.97.25-1.37.16-.41.38-.75.66-1.04a2.85 2.85 0 0 1 1.98-.86c.46 0 .86.08 1.2.24a2.41 2.41 0 0 1 1.35 1.65c.12.37.18.78.18 1.22v.5h-4.53v.03c.02.31.09.58.18.82a2.06 2.06 0 0 0 1.02 1.07 2.2 2.2 0 0 0 2.58-.7l.66.52a2.83 2.83 0 0 1-2.5 1.23Zm-.14-5.69c-.22 0-.42.04-.62.13-.2.07-.37.19-.53.34a2.29 2.29 0 0 0-.62 1.35h3.41v-.05c0-.2-.03-.4-.1-.63a1.82 1.82 0 0 0-.32-.59 1.5 1.5 0 0 0-1.22-.55Zm7.17 1.58 1.7-2.35h1.26l-2.36 3.13 2.43 3.21h-1.26l-1.75-2.41-1.75 2.41h-1.27l2.43-3.2-2.36-3.14h1.25l1.68 2.35Zm8.75 3.99a1.28 1.28 0 0 1-.1-.3 3.93 3.93 0 0 1-.06-.4 2.95 2.95 0 0 1-1.33.75 2.7 2.7 0 0 1-1.5-.08c-.27-.1-.5-.23-.68-.4a1.72 1.72 0 0 1-.6-1.33 2 2 0 0 1 .2-.91c.15-.26.34-.48.6-.66.25-.17.56-.3.91-.38.36-.1.76-.13 1.2-.13h1.19v-.5c0-.2-.04-.37-.1-.52a1.14 1.14 0 0 0-.3-.39 1.4 1.4 0 0 0-.48-.25 2.45 2.45 0 0 0-1.2 0c-.17.05-.31.13-.43.21-.12.1-.21.2-.28.33a.81.81 0 0 0-.1.38h-1.08c0-.23.06-.46.17-.68.12-.22.29-.43.5-.6.22-.18.48-.32.8-.43a3.58 3.58 0 0 1 2.06-.03 1.93 1.93 0 0 1 1.52 2v2.94a4.18 4.18 0 0 0 .22 1.29V92h-1.13Zm-1.91-.83a2.07 2.07 0 0 0 1.48-.6c.1-.12.2-.24.26-.36v-1.29h-1.01c-.38 0-.7.04-.99.1-.27.07-.5.16-.66.3-.12.09-.2.2-.27.33a1.22 1.22 0 0 0-.01.87c.05.14.13.25.24.34.1.1.24.18.4.23.16.06.34.08.56.08Zm5.45-5.51.03.6c.13-.22.3-.4.5-.52a1.63 1.63 0 0 1 1.22-.14c.13.04.25.09.35.16a1.2 1.2 0 0 1 .36.46 1.46 1.46 0 0 1 .44-.45 1.54 1.54 0 0 1 .8-.23c.22 0 .42.04.6.1.17.07.32.16.44.28.13.14.23.33.3.55.08.23.11.5.11.8V92h-1.03v-4.75c0-.13-.02-.25-.05-.35a.67.67 0 0 0-.13-.25.58.58 0 0 0-.24-.14.96.96 0 0 0-.31-.05.95.95 0 0 0-.34.06.7.7 0 0 0-.23.14.7.7 0 0 0-.15.21.92.92 0 0 0-.07.27V92h-1.03v-4.75a.96.96 0 0 0-.05-.35.58.58 0 0 0-.13-.26.5.5 0 0 0-.22-.13 1.12 1.12 0 0 0-.64 0 .68.68 0 0 0-.47.45V92h-1.03v-6.34h.97Zm6.7 8.78v-8.78h1l.05.7a2.03 2.03 0 0 1 1.15-.74 2.68 2.68 0 0 1 1.73.16c.31.16.57.39.78.67.22.29.38.63.48 1.03.12.4.17.82.17 1.3v.12c0 .45-.05.88-.16 1.27-.11.4-.27.73-.48 1.02a2.23 2.23 0 0 1-1.85.93c-.24 0-.47-.03-.68-.08a2.23 2.23 0 0 1-.85-.4 2.42 2.42 0 0 1-.25-.25v3.05h-1.09Zm4.28-5.66c0-.31-.04-.6-.11-.88a2.3 2.3 0 0 0-.31-.75 1.64 1.64 0 0 0-.55-.5 1.78 1.78 0 0 0-1.25-.13c-.14.04-.27.1-.38.17a1.4 1.4 0 0 0-.33.28 2 2 0 0 0-.26.36v3.05c.06.12.14.23.23.33.08.1.18.19.29.26a1.63 1.63 0 0 0 .93.26 1.5 1.5 0 0 0 1.32-.7c.14-.22.24-.46.31-.74.07-.29.1-.58.1-.89v-.12Zm3.1-5.78h3.25v8.06h2.06V92h-5.3v-.94h2.15v-7.12h-2.15V83Zm9.84 9.12c-.44 0-.85-.08-1.23-.23a2.8 2.8 0 0 1-1.57-1.61 3.3 3.3 0 0 1-.22-1.23v-.24c0-.52.08-.97.24-1.37.17-.41.38-.75.66-1.04a2.84 2.84 0 0 1 1.98-.86c.46 0 .86.08 1.2.24a2.41 2.41 0 0 1 1.35 1.65c.12.37.18.78.18 1.22v.5h-4.53v.03c.03.31.09.58.18.82a2.07 2.07 0 0 0 1.02 1.07 2.2 2.2 0 0 0 2.58-.7l.67.52c-.21.32-.53.6-.95.86a3.1 3.1 0 0 1-1.56.37Zm-.14-5.69c-.22 0-.42.04-.62.13-.2.07-.37.19-.52.34-.16.16-.3.35-.4.58-.1.22-.18.48-.22.77h3.4v-.05c0-.2-.03-.4-.1-.63a1.81 1.81 0 0 0-.32-.59 1.5 1.5 0 0 0-1.22-.55Zm6.44 4.87c0-.23.07-.43.2-.6.15-.16.36-.24.65-.24.28 0 .5.08.64.25.14.16.22.35.22.59 0 .23-.08.42-.22.58a.88.88 0 0 1-.64.23c-.28 0-.5-.08-.64-.23a.85.85 0 0 1-.21-.58Zm8.02-.06a1.76 1.76 0 0 0 1.07-.36c.14-.1.25-.24.34-.39a1 1 0 0 0 .14-.49h1.03c0 .28-.08.55-.22.81-.15.25-.33.48-.57.67a2.9 2.9 0 0 1-3.05.38 2.5 2.5 0 0 1-.9-.7 2.93 2.93 0 0 1-.54-1 3.98 3.98 0 0 1-.18-1.2v-.25c0-.42.06-.82.18-1.2.12-.39.3-.72.54-1.02.24-.29.54-.52.9-.69a2.9 2.9 0 0 1 1.26-.26 2.83 2.83 0 0 1 1.85.67 2.26 2.26 0 0 1 .73 1.63h-1.03c0-.2-.04-.37-.13-.54a1.43 1.43 0 0 0-.81-.76c-.19-.07-.4-.1-.61-.1a1.6 1.6 0 0 0-1.4.72 2.3 2.3 0 0 0-.3.73 3.8 3.8 0 0 0-.1.82v.24c0 .28.03.56.1.83.06.27.16.51.3.73.13.21.32.4.54.53.23.13.52.2.86.2Zm4.2-2.47c0-.46.07-.88.2-1.27a3 3 0 0 1 .57-1.03c.25-.28.55-.51.9-.68.36-.16.76-.25 1.2-.25a2.8 2.8 0 0 1 2.13.93 3.55 3.55 0 0 1 .77 2.3v.13c0 .46-.07.88-.2 1.27-.14.4-.33.73-.57 1.02a2.65 2.65 0 0 1-2.11.93c-.45 0-.86-.08-1.21-.25a2.6 2.6 0 0 1-.9-.68 3.02 3.02 0 0 1-.58-1.02c-.13-.39-.2-.81-.2-1.27v-.13Zm1.08.13c0 .31.04.61.12.9.07.28.18.53.33.74a1.61 1.61 0 0 0 1.35.7c.3 0 .57-.06.79-.19.22-.12.41-.3.57-.5.15-.22.26-.47.33-.75.08-.29.11-.59.11-.9v-.13c0-.3-.04-.6-.12-.88a2.35 2.35 0 0 0-.33-.75 1.7 1.7 0 0 0-.57-.51 1.5 1.5 0 0 0-.78-.2c-.3 0-.56.07-.79.2-.22.12-.4.3-.56.5a3.17 3.17 0 0 0-.45 1.64v.13Zm6.93-3.24.03.6c.13-.22.3-.4.5-.52a1.65 1.65 0 0 1 1.22-.14c.13.04.25.09.35.16a1.2 1.2 0 0 1 .36.46 1.51 1.51 0 0 1 .44-.45 1.52 1.52 0 0 1 .8-.23c.22 0 .42.04.6.1.17.07.32.16.44.28.13.14.24.33.3.55.07.23.11.5.11.8V92h-1.03v-4.75c0-.13-.02-.25-.05-.35a.68.68 0 0 0-.13-.25.6.6 0 0 0-.24-.14.96.96 0 0 0-.31-.05.95.95 0 0 0-.34.06.7.7 0 0 0-.23.14.7.7 0 0 0-.15.21.88.88 0 0 0-.07.27V92h-1.03v-4.75c0-.13-.02-.25-.05-.35a.6.6 0 0 0-.13-.26.5.5 0 0 0-.22-.13 1.1 1.1 0 0 0-.64 0 .67.67 0 0 0-.47.45V92h-1.03v-6.34h.97Zm8.14 7.07H172l3.56-9.26h.97l-3.56 9.26Zm5.95-9.73h3.24v8.06h2.06V92h-5.3v-.94h2.15v-7.12h-2.15V83Zm7.2 2.66h3.24v5.4h2.07V92h-5.3v-.94h2.15V86.6h-2.16v-.94Zm2.02-1.66c0-.1.01-.19.04-.27a.56.56 0 0 1 .33-.33.77.77 0 0 1 .28-.04c.1 0 .19.01.27.04a.5.5 0 0 1 .2.12c.05.06.1.12.13.2.03.09.05.18.05.28 0 .17-.06.32-.16.44-.11.11-.28.17-.5.17a.65.65 0 0 1-.48-.17.63.63 0 0 1-.16-.44Zm9.23 6.32a.76.76 0 0 0-.07-.35.77.77 0 0 0-.26-.28 1.97 1.97 0 0 0-.48-.24 4.9 4.9 0 0 0-.75-.2 6.6 6.6 0 0 1-1-.27c-.29-.1-.54-.23-.75-.38a1.62 1.62 0 0 1-.5-.5 1.49 1.49 0 0 1 0-1.41c.13-.24.3-.43.51-.6.22-.17.48-.3.78-.4a3.4 3.4 0 0 1 2.06 0c.31.1.58.25.8.43a1.86 1.86 0 0 1 .68 1.4h-1.08a.83.83 0 0 0-.1-.4 1.13 1.13 0 0 0-.3-.35 1.5 1.5 0 0 0-.46-.24 2.2 2.2 0 0 0-1.2-.02c-.18.05-.32.12-.43.2a.86.86 0 0 0-.26.3.75.75 0 0 0-.1.36.68.68 0 0 0 .32.6 5.59 5.59 0 0 0 1.2.39c.39.08.74.17 1.05.28.3.1.57.23.78.38.2.16.37.33.48.53a1.54 1.54 0 0 1-.03 1.46c-.12.23-.3.43-.52.6-.23.16-.5.28-.82.37a3.79 3.79 0 0 1-2.18-.03 2.7 2.7 0 0 1-.85-.47 1.77 1.77 0 0 1-.72-1.44h1.08a1.15 1.15 0 0 0 .57.94c.15.1.32.16.5.2a2.73 2.73 0 0 0 1.32-.04c.22-.07.38-.17.5-.29a.8.8 0 0 0 .17-.24.7.7 0 0 0 .06-.3Zm5.56-6.2v1.54h2.42v.84h-2.42v3.44c0 .25.03.45.1.61a.95.95 0 0 0 .63.59c.15.04.3.06.46.06a3.9 3.9 0 0 0 .73-.07 14.56 14.56 0 0 0 .59-.12l.15.77c-.1.05-.2.1-.33.14a3.74 3.74 0 0 1-.9.17l-.51.03a2.6 2.6 0 0 1-.8-.12 1.65 1.65 0 0 1-.63-.39c-.18-.17-.32-.4-.42-.66a3 3 0 0 1-.16-1V86.5h-1.66v-.84h1.66v-1.53h1.1Zm7.44 8c-.44 0-.85-.08-1.22-.23a2.8 2.8 0 0 1-1.58-1.61 3.3 3.3 0 0 1-.22-1.23v-.24c0-.52.08-.97.24-1.37.17-.41.38-.75.66-1.04a2.85 2.85 0 0 1 1.98-.86c.46 0 .86.08 1.2.24a2.41 2.41 0 0 1 1.35 1.65c.12.37.18.78.18 1.22v.5h-4.53v.03c.03.31.09.58.18.82a2.07 2.07 0 0 0 1.02 1.07 2.2 2.2 0 0 0 2.58-.7l.67.52c-.21.32-.53.6-.95.86a3.1 3.1 0 0 1-1.56.37Zm-.14-5.69c-.21 0-.42.04-.62.13-.2.07-.37.19-.52.34-.16.16-.3.35-.4.58-.1.22-.18.48-.22.77h3.4v-.05a2 2 0 0 0-.42-1.22 1.5 1.5 0 0 0-1.22-.55Zm4.55 5.57v-6.34h.97l.08.94a2.75 2.75 0 0 1 .66-.66 2.45 2.45 0 0 1 1.31-.4c.34 0 .64.05.9.14a1.74 1.74 0 0 1 1.14 1.2c.1.3.16.67.16 1.1V92h-1.08v-4c0-.28-.03-.52-.1-.72-.06-.2-.15-.35-.27-.47a1.24 1.24 0 0 0-.46-.27 2.06 2.06 0 0 0-1.16.01c-.18.06-.33.13-.48.23a2.17 2.17 0 0 0-.58.67V92h-1.09Zm10 .12c-.44 0-.85-.08-1.22-.23a2.79 2.79 0 0 1-1.58-1.61 3.3 3.3 0 0 1-.22-1.23v-.24c0-.52.08-.97.25-1.37a2.85 2.85 0 0 1 2.64-1.9 2.5 2.5 0 0 1 2.05.89c.23.28.4.61.5 1 .12.37.17.78.17 1.22v.5h-4.53v.03c.03.31.1.58.19.82a2.07 2.07 0 0 0 1.01 1.07 2.2 2.2 0 0 0 2.58-.7l.67.52c-.21.32-.53.6-.95.86-.42.24-.93.37-1.55.37Zm-.13-5.69c-.22 0-.43.04-.62.13-.2.07-.37.19-.53.34-.16.16-.29.35-.4.58-.1.22-.18.48-.22.77h3.4v-.05a2 2 0 0 0-.1-.63 1.81 1.81 0 0 0-.31-.59 1.5 1.5 0 0 0-1.22-.55Zm8.7-.89a4.91 4.91 0 0 1 1.11.16l-.14 1.06a5.26 5.26 0 0 0-1.2-.14c-.27 0-.5.03-.72.1a1.66 1.66 0 0 0-.94.69c-.1.15-.2.33-.27.52V92h-1.09v-6.34h1.03l.05.85v.16c.26-.35.57-.62.93-.82.37-.2.78-.3 1.24-.3ZM54.38 103.47v5.78a2.95 2.95 0 0 1-.78 2.02 2.73 2.73 0 0 1-2 .85c-.42 0-.8-.08-1.13-.23a2.59 2.59 0 0 1-.88-.61 2.81 2.81 0 0 1-.56-.9 3.3 3.3 0 0 1-.22-1.13l.02-5.78h1.03l.02 5.78a2.24 2.24 0 0 0 .45 1.35 1.6 1.6 0 0 0 1.27.6c.27 0 .52-.06.73-.16.21-.11.39-.26.53-.44a2.16 2.16 0 0 0 .45-1.35l.02-5.78h1.05Zm6.06 6.85a.76.76 0 0 0-.08-.35.76.76 0 0 0-.25-.28 1.95 1.95 0 0 0-.48-.24c-.2-.07-.45-.14-.75-.2a6.6 6.6 0 0 1-1-.27c-.3-.1-.55-.23-.76-.38a1.63 1.63 0 0 1-.5-.5c-.11-.2-.17-.44-.17-.7 0-.26.06-.5.18-.72.12-.23.3-.42.51-.6a2.86 2.86 0 0 1 1.78-.54c.4 0 .74.05 1.06.15.3.1.57.25.8.43a1.87 1.87 0 0 1 .68 1.4h-1.09a.82.82 0 0 0-.1-.4 1.14 1.14 0 0 0-.3-.35c-.12-.1-.27-.18-.45-.24s-.38-.1-.6-.1c-.23 0-.43.03-.6.08a1.5 1.5 0 0 0-.44.2.86.86 0 0 0-.26.3.75.75 0 0 0-.09.35c0 .13.03.24.07.34.05.1.13.19.25.26.11.08.27.15.46.21.2.07.44.13.73.19.4.08.75.17 1.05.28.31.1.57.23.78.38.21.16.37.33.48.53.12.2.17.43.17.7 0 .27-.06.53-.19.76-.12.23-.3.43-.53.6a3.44 3.44 0 0 1-1.85.51 3.7 3.7 0 0 1-1.15-.17 2.7 2.7 0 0 1-.85-.47 1.77 1.77 0 0 1-.72-1.43h1.09c.01.22.07.4.17.56.1.15.24.28.4.37.15.1.32.16.5.2a2.73 2.73 0 0 0 1.32-.04c.21-.07.38-.17.5-.29a.8.8 0 0 0 .17-.24.7.7 0 0 0 .06-.3Zm5.8 1.8c-.45 0-.86-.08-1.24-.23a2.8 2.8 0 0 1-1.57-1.61 3.3 3.3 0 0 1-.22-1.23v-.24c0-.52.08-.97.24-1.37.17-.41.38-.75.66-1.04a2.85 2.85 0 0 1 1.98-.86c.46 0 .86.08 1.2.24a2.41 2.41 0 0 1 1.35 1.65c.12.37.18.78.18 1.22v.5h-4.53v.03c.03.31.09.58.18.82a2.06 2.06 0 0 0 1.02 1.07 2.2 2.2 0 0 0 2.58-.7l.67.52c-.21.32-.53.6-.95.86a3.1 3.1 0 0 1-1.56.37Zm-.15-5.69c-.22 0-.42.04-.62.13-.2.08-.37.19-.52.34a2.1 2.1 0 0 0-.4.58c-.1.22-.18.48-.23.77h3.41v-.05c0-.2-.03-.4-.1-.63a1.83 1.83 0 0 0-.32-.59 1.5 1.5 0 0 0-1.22-.55Zm8.7-.89a4.99 4.99 0 0 1 1.12.15l-.15 1.07a5.32 5.32 0 0 0-1.2-.14c-.26 0-.5.03-.71.1a1.65 1.65 0 0 0-.95.69c-.1.15-.2.33-.26.52V112h-1.1v-6.34h1.04l.05.85v.16c.26-.35.57-.62.93-.82.36-.2.77-.3 1.23-.3Zm7.8 3.17H78.1v-.89h4.48v.9Zm6.54 1.08h-2.85l-.69 2.21h-1.08l2.75-8.53h.91l2.7 8.53H89.8l-.67-2.2Zm-2.56-.94h2.27l-1.13-3.7-1.14 3.7Zm5.5-.07c0-.47.05-.9.16-1.3.12-.4.29-.74.5-1.03.23-.28.5-.5.8-.67a2.58 2.58 0 0 1 1.76-.15 1.97 1.97 0 0 1 1.08.72l.06-.69h.98v6.2c0 .42-.06.8-.2 1.12-.13.32-.3.6-.54.83-.24.22-.52.4-.85.51a3.2 3.2 0 0 1-2.3-.06c-.21-.09-.42-.2-.63-.34-.2-.14-.37-.31-.51-.52l.56-.65a2.64 2.64 0 0 0 .84.67 2 2 0 0 0 .87.19c.25 0 .49-.04.7-.11a1.41 1.41 0 0 0 .87-.86c.07-.2.1-.45.1-.72v-.55a2.32 2.32 0 0 1-.55.47 2.6 2.6 0 0 1-1.19.28 2.22 2.22 0 0 1-1.84-.93 3.2 3.2 0 0 1-.5-1.02c-.12-.4-.18-.82-.18-1.27v-.12Zm1.08.12c0 .3.03.6.09.88.07.28.17.52.31.73.14.21.31.38.53.5a1.81 1.81 0 0 0 1.28.12 1.53 1.53 0 0 0 .97-.86v-2.9a1.95 1.95 0 0 0-.25-.37c-.1-.1-.2-.2-.32-.28a1.63 1.63 0 0 0-.9-.25c-.3 0-.56.06-.78.18-.22.13-.4.3-.53.5-.14.22-.24.47-.31.75a4 4 0 0 0-.1.88v.12Zm9.12 3.22c-.45 0-.86-.08-1.23-.23a2.81 2.81 0 0 1-1.58-1.61 3.3 3.3 0 0 1-.22-1.23v-.24c0-.52.08-.97.25-1.37a2.84 2.84 0 0 1 2.64-1.9 2.5 2.5 0 0 1 2.05.89c.23.28.4.61.5 1 .12.37.17.78.17 1.22v.5h-4.53v.03c.03.31.1.58.19.82a2.06 2.06 0 0 0 1.02 1.07 2.2 2.2 0 0 0 2.58-.7l.66.52a2.87 2.87 0 0 1-2.5 1.23Zm-.14-5.69c-.22 0-.43.04-.62.13a1.66 1.66 0 0 0-.93.92c-.1.22-.18.48-.22.77h3.41v-.05a2 2 0 0 0-.11-.63 1.84 1.84 0 0 0-.31-.59 1.51 1.51 0 0 0-1.22-.55Zm4.55 5.57v-6.34h.97l.07.94a2.78 2.78 0 0 1 .67-.66 2.47 2.47 0 0 1 1.31-.4c.33 0 .63.05.9.14.28.1.5.24.7.44a2 2 0 0 1 .44.77c.1.3.16.66.16 1.08V112h-1.09v-4c0-.28-.03-.52-.1-.72a1 1 0 0 0-.27-.47 1.13 1.13 0 0 0-.45-.27 2.04 2.04 0 0 0-1.17.01c-.17.06-.33.13-.47.23a2.14 2.14 0 0 0-.59.67V112h-1.08Zm9.77-7.88v1.54h2.41v.84h-2.41v3.44c0 .25.03.45.1.61a.93.93 0 0 0 .63.59c.14.04.3.06.45.06a4.15 4.15 0 0 0 1.06-.13l.26-.06.15.77c-.09.05-.2.1-.32.14a4.35 4.35 0 0 1-2.2.08 1.65 1.65 0 0 1-.64-.39 1.8 1.8 0 0 1-.43-.67 2.9 2.9 0 0 1-.15-1v-3.44h-1.67v-.84h1.67v-1.53h1.09Zm6.82 7.18c0-.23.07-.43.21-.6.14-.16.35-.24.64-.24.28 0 .5.08.64.25.15.16.22.35.22.59a.8.8 0 0 1-.22.58c-.15.15-.36.23-.64.23s-.5-.08-.64-.23a.85.85 0 0 1-.21-.58Zm0-5.14c0-.23.07-.42.21-.59.14-.16.35-.24.64-.24.28 0 .5.08.64.24.15.16.22.36.22.6 0 .22-.07.42-.22.57-.15.16-.36.24-.64.24s-.5-.08-.64-.24a.85.85 0 0 1-.21-.58Zm14.94 5.08a1.76 1.76 0 0 0 1.06-.36c.15-.1.26-.24.35-.39a1 1 0 0 0 .14-.49h1.02c0 .28-.07.55-.22.81-.14.25-.33.48-.57.67a2.92 2.92 0 0 1-3.05.38c-.35-.17-.65-.4-.9-.7a2.93 2.93 0 0 1-.54-1 3.98 3.98 0 0 1-.18-1.2v-.25c0-.42.06-.82.18-1.2.13-.39.3-.73.55-1.02.24-.29.54-.52.9-.69a2.9 2.9 0 0 1 1.26-.26 2.83 2.83 0 0 1 1.85.66 2.26 2.26 0 0 1 .72 1.64h-1.02a1.43 1.43 0 0 0-.94-1.3 1.64 1.64 0 0 0-.61-.1c-.34 0-.62.06-.86.2-.22.13-.4.3-.54.52-.15.22-.25.46-.31.73a3.8 3.8 0 0 0-.09.82v.24c0 .28.03.56.09.83.06.27.16.51.3.73.14.21.32.4.55.53.23.13.52.2.86.2Zm8.68.76-.07-.87c-.2.3-.47.55-.79.73a2.56 2.56 0 0 1-2 .1c-.26-.1-.5-.26-.69-.48-.19-.22-.34-.5-.44-.83a4.3 4.3 0 0 1-.15-1.22v-3.77h1.08v3.78c0 .34.03.63.08.86.06.22.14.4.25.53.1.14.24.24.4.3a2.36 2.36 0 0 0 1.2 0c.19-.07.35-.15.5-.25a1.77 1.77 0 0 0 .53-.67v-4.55h1.08V112h-.98Zm7.18-6.46a4.98 4.98 0 0 1 1.12.15l-.15 1.07a5.33 5.33 0 0 0-1.2-.14c-.26 0-.5.03-.72.1a1.64 1.64 0 0 0-.94.69c-.1.15-.2.33-.26.52V112h-1.1v-6.34h1.04l.04.85.01.16c.26-.35.57-.62.93-.82.36-.2.77-.3 1.23-.3Zm3.22-2.54h3.25v8.06h2.06v.94h-5.3v-.94h2.15v-7.12h-2.16V103Zm8.47 9.73h-.97l3.56-9.26h.97l-3.56 9.26Zm11.03-7.04a2.05 2.05 0 0 1-.9 1.7c-.11.09-.23.16-.35.22a2.55 2.55 0 0 1 1.05.83 2.12 2.12 0 0 1 .4 1.26 2.29 2.29 0 0 1-.8 1.78c-.25.21-.53.37-.86.48a3.54 3.54 0 0 1-2.13 0c-.33-.1-.61-.26-.85-.47a2 2 0 0 1-.58-.76 2.41 2.41 0 0 1 .17-2.3 2.36 2.36 0 0 1 1.05-.83 2.04 2.04 0 0 1-1.14-1.3c-.06-.2-.1-.4-.1-.6 0-.38.07-.7.2-1 .12-.29.3-.53.52-.73.21-.2.47-.36.78-.46a3.22 3.22 0 0 1 2.01 0 2.27 2.27 0 0 1 1.34 1.19c.13.3.19.62.19 1Zm-.9 3.98a1.7 1.7 0 0 0-.45-1.17 1.5 1.5 0 0 0-.52-.33 1.99 1.99 0 0 0-1.32 0c-.2.08-.37.2-.51.33-.15.15-.25.32-.33.52-.08.2-.11.42-.11.65a2 2 0 0 0 .1.67 1.37 1.37 0 0 0 .85.79c.2.07.43.1.68.1.23 0 .45-.03.65-.1s.37-.17.52-.3c.14-.14.25-.3.33-.5.08-.19.12-.41.12-.66Zm-.2-3.96a1.54 1.54 0 0 0-.4-1.06 1.46 1.46 0 0 0-1.04-.41c-.2 0-.4.04-.57.1-.17.07-.32.17-.44.3-.13.13-.22.29-.3.47a1.89 1.89 0 0 0 0 1.2 1.37 1.37 0 0 0 .75.76 1.75 1.75 0 0 0 1.15 0 1.33 1.33 0 0 0 .75-.75c.07-.19.1-.39.1-.6Zm4.94 5.59c0-.23.07-.43.21-.6.14-.16.36-.24.64-.24s.5.08.64.25c.15.16.22.35.22.59a.8.8 0 0 1-.22.58c-.15.15-.36.23-.64.23s-.5-.08-.64-.23a.85.85 0 0 1-.2-.58Zm9.32-7.84v.98h-.1c-.51 0-.95.07-1.3.22a2.51 2.51 0 0 0-1.46 1.5c-.13.36-.2.73-.22 1.1a2.5 2.5 0 0 1 1.28-.79c.17-.04.36-.07.56-.07a2.21 2.21 0 0 1 1.86.89c.2.27.35.56.44.9a3.79 3.79 0 0 1-.03 2.15c-.1.35-.27.66-.5.92-.22.27-.5.48-.83.63-.33.15-.7.23-1.14.23a2.44 2.44 0 0 1-2-.95 3.1 3.1 0 0 1-.56-1.08 4.28 4.28 0 0 1-.19-1.24v-.51c0-.71.08-1.41.25-2.1.17-.69.5-1.27.99-1.76a3.2 3.2 0 0 1 1.22-.76 4.83 4.83 0 0 1 1.63-.26h.1Zm-1.42 3.85c-.18 0-.36.03-.53.08a1.82 1.82 0 0 0-1.15 1.12v.37c0 .37.05.7.14 1 .09.29.21.53.36.73.16.2.33.35.53.46a1.49 1.49 0 0 0 1.3 0 1.5 1.5 0 0 0 .8-1.01 2.82 2.82 0 0 0 .01-1.52 1.95 1.95 0 0 0-.29-.63 1.55 1.55 0 0 0-.48-.44c-.2-.1-.43-.16-.69-.16Zm6.52 3.99c0-.23.07-.43.2-.6.15-.16.36-.24.65-.24.28 0 .5.08.63.25.15.16.23.35.23.59a.8.8 0 0 1-.22.58.88.88 0 0 1-.64.23c-.28 0-.5-.08-.64-.23a.85.85 0 0 1-.21-.58Zm10.67-2.56a5.1 5.1 0 0 1-.19 1.44 2.45 2.45 0 0 1-1.4 1.72 2.9 2.9 0 0 1-1.16.22c-.44 0-.82-.08-1.17-.22a2.26 2.26 0 0 1-.87-.66 2.92 2.92 0 0 1-.55-1.06 5.1 5.1 0 0 1-.18-1.44v-2c0-.55.06-1.02.19-1.44.12-.42.3-.78.54-1.07.23-.29.52-.5.86-.66.34-.15.73-.22 1.17-.22.44 0 .82.07 1.16.22.35.15.64.37.88.66.23.29.41.64.53 1.07.13.42.2.9.2 1.44v2Zm-4.43-.22 3.32-2.55a3 3 0 0 0-.17-.74c-.08-.22-.19-.4-.32-.55-.14-.15-.3-.26-.5-.33-.19-.08-.4-.11-.66-.11s-.49.04-.69.12c-.2.08-.36.2-.5.34-.16.2-.28.44-.37.75-.07.3-.11.65-.11 1.05v2.02Zm3.34.45V107l-3.31 2.53c.03.29.1.54.18.76.1.22.21.4.35.53a1.58 1.58 0 0 0 1.12.4c.25 0 .46-.03.66-.1.19-.08.35-.19.48-.32.18-.2.31-.45.4-.75.08-.31.12-.68.12-1.1ZM53.1 129.78h-2.85l-.68 2.21h-1.09l2.76-8.53h.9l2.71 8.53h-1.07l-.68-2.2Zm-2.55-.94h2.26l-1.12-3.7-1.14 3.7Zm8.39 2.39a1.76 1.76 0 0 0 1.06-.36c.15-.1.26-.24.35-.39a1 1 0 0 0 .14-.49h1.03c0 .28-.08.55-.23.81-.14.25-.33.48-.57.67a2.92 2.92 0 0 1-3.04.38 2.5 2.5 0 0 1-.9-.7 2.93 2.93 0 0 1-.54-1 3.98 3.98 0 0 1-.19-1.2v-.25c0-.42.07-.82.19-1.2.12-.39.3-.73.54-1.02.24-.29.54-.52.9-.69.36-.17.78-.26 1.26-.26a2.83 2.83 0 0 1 1.85.66 2.25 2.25 0 0 1 .73 1.64h-1.03c0-.2-.05-.37-.13-.54a1.42 1.42 0 0 0-.81-.75c-.19-.08-.4-.12-.61-.12-.34 0-.62.07-.85.2-.23.14-.41.31-.55.53a2.3 2.3 0 0 0-.3.73c-.07.27-.1.54-.1.82v.24c0 .28.03.56.1.83.06.27.16.51.3.73.13.22.32.4.54.53.23.13.52.2.86.2Zm7.2 0a1.76 1.76 0 0 0 1.07-.36c.15-.1.26-.24.35-.39a1 1 0 0 0 .14-.49h1.02c0 .28-.08.55-.22.81-.14.25-.33.48-.57.67a2.92 2.92 0 0 1-3.05.38c-.35-.17-.65-.4-.9-.7a2.93 2.93 0 0 1-.54-1 3.98 3.98 0 0 1-.18-1.2v-.25c0-.42.06-.82.18-1.2a2.8 2.8 0 0 1 1.45-1.71c.35-.17.77-.26 1.25-.26a2.83 2.83 0 0 1 1.86.66 2.25 2.25 0 0 1 .72 1.64H67.7c0-.2-.05-.37-.13-.54a1.42 1.42 0 0 0-.82-.75 1.5 1.5 0 0 0-.6-.12c-.34 0-.62.07-.85.2-.23.14-.42.31-.56.53a2.3 2.3 0 0 0-.3.73c-.06.27-.09.54-.09.82v.24c0 .28.03.56.09.83.06.27.16.51.3.73.14.22.32.4.55.53.23.13.51.2.85.2Zm7.31.88c-.44 0-.85-.08-1.23-.23a2.8 2.8 0 0 1-1.58-1.61 3.3 3.3 0 0 1-.22-1.23v-.24c0-.52.08-.97.25-1.37a2.84 2.84 0 0 1 3.84-1.65c.34.15.63.37.85.64.23.28.4.61.5 1 .12.37.18.78.18 1.22v.5H71.5v.03c.02.31.08.58.18.82a2.06 2.06 0 0 0 1.02 1.07 2.2 2.2 0 0 0 2.58-.7l.66.52c-.2.32-.52.6-.95.86-.41.24-.93.37-1.55.37Zm-.14-5.69c-.22 0-.42.04-.62.13-.2.08-.37.19-.53.34a2.1 2.1 0 0 0-.4.58c-.1.22-.18.48-.22.77h3.41v-.05a2 2 0 0 0-.11-.63 1.83 1.83 0 0 0-.31-.59 1.5 1.5 0 0 0-1.22-.55Zm4.54 8v-8.77h1l.04.7a1.98 1.98 0 0 1 .61-.53 2.66 2.66 0 0 1 2.27-.05c.32.16.58.39.8.67.2.29.36.63.47 1.03.11.4.17.83.17 1.3v.12c0 .45-.06.88-.17 1.27-.1.4-.27.73-.48 1.02a2.23 2.23 0 0 1-1.85.93c-.24 0-.46-.03-.67-.08a2.25 2.25 0 0 1-.85-.4 2.41 2.41 0 0 1-.25-.25v3.05h-1.09Zm4.27-5.65c0-.31-.03-.6-.1-.88a2.32 2.32 0 0 0-.31-.75 1.56 1.56 0 0 0-1.33-.7c-.17.01-.33.03-.47.07a1.54 1.54 0 0 0-.72.45 2 2 0 0 0-.25.36v3.05c.06.12.14.23.22.33a1.63 1.63 0 0 0 1.22.52 1.52 1.52 0 0 0 1.33-.7c.14-.22.24-.46.3-.75.08-.28.11-.57.11-.88v-.12Zm5.51-4.66v1.54h2.42v.84h-2.42v3.44c0 .25.03.45.1.61a.94.94 0 0 0 .63.59c.14.04.3.06.45.06a4.15 4.15 0 0 0 1.07-.13l.25-.06.16.77c-.1.05-.2.1-.33.14a4.32 4.32 0 0 1-2.2.08 1.65 1.65 0 0 1-.64-.39 1.8 1.8 0 0 1-.43-.67c-.1-.27-.15-.6-.15-1v-3.44h-1.66v-.84h1.66v-1.53h1.1Zm6.82 7.18c0-.23.07-.43.21-.6.14-.16.36-.24.64-.24s.5.08.64.25c.15.16.22.35.22.59a.8.8 0 0 1-.22.58c-.15.15-.36.23-.64.23s-.5-.08-.64-.23a.85.85 0 0 1-.2-.58Zm0-5.14c0-.23.07-.42.21-.59.14-.16.36-.24.64-.24s.5.08.64.24c.15.16.22.36.22.6a.8.8 0 0 1-.22.57c-.15.16-.36.24-.64.24s-.5-.08-.64-.24a.85.85 0 0 1-.2-.58Zm14.36.48-2.2-.56.31-1.03 2.14.89-.15-2.47h1.04l-.16 2.5 2.12-.88.32 1.05-2.24.55 1.5 1.9-.86.64-1.25-2.13-1.24 2.08-.86-.63 1.53-1.91Zm6.51 6.1h-.97l3.56-9.27h.97l-3.56 9.26Zm7.9-6.1-2.2-.56.31-1.03 2.14.89-.14-2.47h1.04l-.17 2.5 2.13-.88.31 1.05-2.23.55 1.5 1.9-.86.64-1.26-2.13-1.24 2.08-.85-.63 1.53-1.91Zm-68.67 22.8c-.05.39-.15.75-.3 1.08a2.64 2.64 0 0 1-1.46 1.4c-.34.13-.7.2-1.12.2a2.69 2.69 0 0 1-2.3-1.18 4.7 4.7 0 0 1-.73-2.6v-1.2a4.7 4.7 0 0 1 .73-2.6 2.72 2.72 0 0 1 2.3-1.19c.43 0 .8.07 1.14.2a2.49 2.49 0 0 1 1.45 1.42c.15.34.25.7.3 1.11h-1.09a3.2 3.2 0 0 0-.18-.72 2 2 0 0 0-.35-.59 1.5 1.5 0 0 0-.53-.39c-.2-.1-.45-.14-.74-.14a1.62 1.62 0 0 0-1.18.47 2 2 0 0 0-.37.5 4.63 4.63 0 0 0-.4 1.92v1.2a6.35 6.35 0 0 0 .17 1.31c.06.22.14.43.23.62.1.2.21.36.36.5.14.15.31.27.5.36.2.08.43.12.7.12.28 0 .52-.05.73-.14.21-.09.39-.21.53-.38.15-.16.26-.35.35-.57.09-.22.15-.46.18-.72h1.08Zm1.38-.67c0-.46.07-.88.2-1.27.13-.4.33-.74.58-1.03a2.68 2.68 0 0 1 2.1-.93 2.8 2.8 0 0 1 2.12.94c.25.28.44.63.57 1.02.13.4.2.81.2 1.27v.13c0 .46-.07.88-.2 1.27-.13.4-.32.73-.57 1.02a2.66 2.66 0 0 1-2.11.93c-.45 0-.85-.09-1.21-.25a2.6 2.6 0 0 1-.9-.68 3.03 3.03 0 0 1-.58-1.02c-.13-.39-.2-.81-.2-1.27v-.13Zm1.09.13c0 .31.03.61.1.9.08.28.2.53.35.74a1.57 1.57 0 0 0 1.35.7 1.57 1.57 0 0 0 1.35-.7c.15-.21.26-.46.33-.74.08-.29.11-.59.11-.9v-.13c0-.3-.04-.6-.11-.88a2.35 2.35 0 0 0-.34-.75 1.69 1.69 0 0 0-.57-.51 1.5 1.5 0 0 0-.78-.2c-.3 0-.56.07-.79.2-.22.12-.4.3-.55.5a2.1 2.1 0 0 0-.34.76c-.08.28-.11.57-.11.88v.13Zm6.42 3.1v-6.34h.98l.07.94a2.82 2.82 0 0 1 .66-.66 2.47 2.47 0 0 1 1.31-.4c.34 0 .64.05.9.14.28.1.52.24.7.44.2.2.34.46.45.76.1.3.15.67.15 1.1V152h-1.08v-4c0-.28-.03-.52-.1-.72-.06-.2-.15-.35-.27-.47a1.17 1.17 0 0 0-.46-.27 2.04 2.04 0 0 0-1.16.01c-.17.05-.33.13-.48.23a2.16 2.16 0 0 0-.58.67V152h-1.09Zm9.78-7.88v1.54h2.41v.84h-2.41v3.44c0 .25.03.45.1.61a.94.94 0 0 0 .62.59c.15.04.3.06.46.06a4.15 4.15 0 0 0 1.06-.13l.26-.06.15.77c-.09.05-.2.1-.33.14a4.31 4.31 0 0 1-2.2.08 1.65 1.65 0 0 1-.63-.39 1.8 1.8 0 0 1-.43-.67c-.1-.27-.15-.6-.15-1v-3.44h-1.67v-.84h1.67v-1.53h1.09Zm7.44 8c-.45 0-.86-.08-1.23-.23a2.8 2.8 0 0 1-1.58-1.61 3.3 3.3 0 0 1-.22-1.23v-.24c0-.52.08-.97.25-1.37a2.84 2.84 0 0 1 2.64-1.9 2.5 2.5 0 0 1 2.05.89c.23.28.4.61.5 1 .12.37.17.78.17 1.22v.5H78.7v.03c.03.31.1.58.18.82a2.06 2.06 0 0 0 1.02 1.07 2.2 2.2 0 0 0 2.58-.7l.67.52c-.21.32-.53.6-.95.86-.42.24-.93.37-1.55.37Zm-.14-5.69c-.22 0-.43.04-.62.13-.2.07-.37.19-.53.34a2.1 2.1 0 0 0-.4.58c-.1.22-.18.48-.22.77h3.4v-.05a2 2 0 0 0-.1-.63 1.83 1.83 0 0 0-.31-.59 1.5 1.5 0 0 0-1.22-.55Zm4.54 5.57v-6.34h.98l.07.94a2.82 2.82 0 0 1 .67-.66 2.47 2.47 0 0 1 1.31-.4c.33 0 .63.05.9.14.27.1.5.24.7.44.19.2.34.46.44.76.1.3.16.67.16 1.1V152H89.2v-4c0-.28-.03-.52-.1-.72a1 1 0 0 0-.27-.47 1.2 1.2 0 0 0-.45-.27 2.04 2.04 0 0 0-1.17.01c-.17.05-.33.13-.48.23a2.16 2.16 0 0 0-.58.67V152h-1.09Zm9.78-7.88v1.54h2.41v.84h-2.41v3.44c0 .25.03.45.1.61a.94.94 0 0 0 .62.59c.15.04.3.06.46.06a4.15 4.15 0 0 0 1.06-.13l.26-.06.15.77c-.09.05-.2.1-.33.14a4.31 4.31 0 0 1-2.2.08 1.65 1.65 0 0 1-.63-.39 1.8 1.8 0 0 1-.43-.67c-.1-.27-.15-.6-.15-1v-3.44h-1.67v-.84h1.67v-1.53h1.09Zm9.38 4.6h-4.48v-.9h4.48v.9Zm8.22-4.32h-2.64v7.6h-1.05v-7.6h-2.64v-.93h6.33v.93Zm1.96 10.16-.36-.03a7.25 7.25 0 0 1-.3-.06l.17-.89a7.42 7.42 0 0 0 .52.03.7.7 0 0 0 .4-.12c.13-.08.24-.18.33-.3a5.88 5.88 0 0 0 .4-.65l.44-.84-2.73-6.04h1.21l1.75 4.09.28.77.3-.75 1.63-4.11h1.21l-3.21 7.32a4.2 4.2 0 0 1-.7 1.03 1.8 1.8 0 0 1-1.34.55Zm6.7-.12v-8.78h.98l.06.7a2 2 0 0 1 1.15-.74 2.66 2.66 0 0 1 1.73.16c.31.16.57.39.78.67.22.29.38.63.48 1.03.12.4.17.83.17 1.3v.12c0 .45-.05.88-.16 1.27-.11.4-.27.73-.48 1.02a2.23 2.23 0 0 1-1.85.93c-.24 0-.47-.03-.68-.08a2.23 2.23 0 0 1-.85-.4 2.38 2.38 0 0 1-.25-.25v3.05h-1.09Zm4.27-5.66c0-.31-.04-.6-.11-.88a2.3 2.3 0 0 0-.31-.75 1.64 1.64 0 0 0-.55-.5 1.56 1.56 0 0 0-.78-.19 1.46 1.46 0 0 0-.85.23 1.4 1.4 0 0 0-.33.28c-.1.1-.19.23-.26.36v3.05c.06.12.14.23.23.33.08.1.18.19.29.26a1.63 1.63 0 0 0 .93.26 1.5 1.5 0 0 0 1.32-.7c.14-.22.24-.46.31-.75.07-.28.1-.57.1-.88v-.12Zm5.74 3.34c-.45 0-.86-.08-1.23-.23a2.81 2.81 0 0 1-1.58-1.61 3.3 3.3 0 0 1-.22-1.23v-.24a3.43 3.43 0 0 1 .9-2.41 2.84 2.84 0 0 1 3.18-.62 2.45 2.45 0 0 1 1.36 1.65c.12.37.17.78.17 1.22v.5h-4.53v.03c.03.31.09.58.18.82a2.06 2.06 0 0 0 1.02 1.07 2.21 2.21 0 0 0 2.58-.7l.67.52c-.21.32-.53.6-.95.86a3.1 3.1 0 0 1-1.55.37Zm-.14-5.69c-.22 0-.43.04-.62.13-.2.07-.38.19-.53.34a2.1 2.1 0 0 0-.4.58c-.1.22-.18.48-.22.77h3.4v-.05c0-.2-.03-.4-.1-.63a1.82 1.82 0 0 0-.31-.59 1.51 1.51 0 0 0-1.22-.55Zm6.72 4.87c0-.23.07-.43.22-.6.13-.16.35-.24.63-.24s.5.08.64.25c.15.16.23.35.23.59 0 .23-.08.42-.23.58-.15.15-.36.23-.64.23s-.5-.08-.63-.23a.85.85 0 0 1-.22-.58Zm0-5.14c0-.23.07-.42.22-.59.13-.16.35-.24.63-.24s.5.08.64.24c.15.16.23.36.23.6 0 .23-.08.42-.23.57-.15.16-.36.24-.64.24s-.5-.08-.63-.24a.85.85 0 0 1-.22-.58Zm16.4 5.84a1.25 1.25 0 0 1-.1-.3 3.94 3.94 0 0 1-.05-.4 3.08 3.08 0 0 1-.81.58 2.85 2.85 0 0 1-1.11.24 2.6 2.6 0 0 1-.91-.15c-.27-.1-.5-.23-.69-.4a1.71 1.71 0 0 1-.6-1.33c0-.34.07-.65.2-.91.15-.26.34-.48.6-.66.25-.17.56-.3.91-.38.36-.1.76-.13 1.2-.13h1.19v-.5c0-.2-.04-.37-.1-.52a1.13 1.13 0 0 0-.3-.39 1.4 1.4 0 0 0-.48-.25 2.02 2.02 0 0 0-.62-.08c-.22 0-.41.02-.58.08a1.22 1.22 0 0 0-.71.54.81.81 0 0 0-.09.38h-1.09a1.77 1.77 0 0 1 .68-1.28c.22-.18.48-.32.79-.43a3.57 3.57 0 0 1 2.06-.03 1.93 1.93 0 0 1 1.52 2v2.94a4.18 4.18 0 0 0 .22 1.29v.09h-1.13Zm-1.91-.83a2.1 2.1 0 0 0 1.48-.6c.11-.12.2-.24.26-.36v-1.29h-1.01c-.38 0-.7.04-.98.1-.28.07-.5.16-.67.3-.11.09-.2.2-.27.33-.05.13-.08.28-.08.44 0 .16.02.3.07.43a.9.9 0 0 0 .24.34c.1.1.24.18.4.23.16.06.35.08.56.08Zm4.95 3.27v-8.78h.99l.05.7a2 2 0 0 1 1.16-.74 2.67 2.67 0 0 1 1.72.16c.32.16.58.39.79.67.21.29.37.63.48 1.03.11.4.16.83.16 1.3v.12c0 .45-.05.88-.16 1.27-.1.4-.27.73-.48 1.02a2.23 2.23 0 0 1-1.85.93c-.24 0-.46-.03-.67-.08a2.25 2.25 0 0 1-.85-.4 2.38 2.38 0 0 1-.26-.25v3.05h-1.08Zm4.27-5.66c0-.31-.03-.6-.1-.88a2.33 2.33 0 0 0-.31-.75 1.65 1.65 0 0 0-.55-.5 1.8 1.8 0 0 0-1.25-.13 1.53 1.53 0 0 0-.72.45c-.1.1-.18.23-.26.36v3.05c.07.12.15.23.23.33a1.62 1.62 0 0 0 1.22.52c.3 0 .57-.06.79-.19.21-.12.4-.3.53-.51.15-.22.25-.46.31-.75.07-.28.11-.57.11-.88v-.12Zm2.94 5.66v-8.78h.99l.05.7a2 2 0 0 1 1.15-.74 2.67 2.67 0 0 1 1.73.16c.31.16.58.39.79.67.2.29.37.63.48 1.03.1.4.16.83.16 1.3v.12c0 .45-.05.88-.16 1.27-.11.4-.27.73-.48 1.02a2.23 2.23 0 0 1-1.85.93c-.24 0-.47-.03-.68-.08a2.25 2.25 0 0 1-.85-.4 2.38 2.38 0 0 1-.25-.25v3.05h-1.08Zm4.27-5.66c0-.31-.04-.6-.1-.88a2.33 2.33 0 0 0-.32-.75 1.65 1.65 0 0 0-.54-.5 1.8 1.8 0 0 0-1.25-.13 1.53 1.53 0 0 0-.72.45c-.1.1-.19.23-.26.36v3.05c.07.12.14.23.23.33s.18.19.3.26a1.62 1.62 0 0 0 .92.26 1.5 1.5 0 0 0 1.32-.7c.14-.22.25-.46.31-.75.07-.28.1-.57.1-.88v-.12Zm3.1-5.78h3.25v8.06h2.07v.94h-5.31v-.94h2.16v-7.12h-2.16V143Zm7.22 2.66h3.24v5.4h2.06v.94h-5.3v-.94h2.15v-4.46h-2.15v-.94Zm2.01-1.66c0-.1.01-.19.04-.27a.56.56 0 0 1 .34-.33.77.77 0 0 1 .27-.04c.1 0 .2.01.27.04.08.03.14.07.2.12.06.06.1.13.14.2.03.09.04.18.04.28 0 .17-.05.32-.16.44-.11.11-.27.17-.49.17-.22 0-.38-.06-.49-.17a.63.63 0 0 1-.16-.44Zm7.72 7.24a1.77 1.77 0 0 0 1.07-.36c.15-.1.26-.24.35-.39a1 1 0 0 0 .14-.49h1.02c0 .28-.08.55-.22.81-.14.25-.33.48-.57.67a2.9 2.9 0 0 1-3.04.38 2.4 2.4 0 0 1-.9-.7 2.93 2.93 0 0 1-.55-1 3.98 3.98 0 0 1-.18-1.2v-.25c0-.42.06-.82.18-1.2.12-.39.3-.72.55-1.02.24-.29.53-.52.9-.69.35-.17.77-.26 1.25-.26a2.84 2.84 0 0 1 1.86.67 2.26 2.26 0 0 1 .72 1.63h-1.02c0-.2-.05-.37-.13-.54a1.42 1.42 0 0 0-.82-.76c-.18-.07-.39-.1-.6-.1a1.57 1.57 0 0 0-1.41.72c-.14.22-.24.46-.3.73-.06.27-.09.54-.09.82v.24c0 .28.03.56.09.83.06.27.16.51.3.73.14.22.32.4.55.53.23.13.51.2.85.2Zm8.68.76a1.25 1.25 0 0 1-.1-.3 3.94 3.94 0 0 1-.06-.4 2.93 2.93 0 0 1-1.33.75 2.72 2.72 0 0 1-1.5-.08c-.27-.1-.5-.23-.69-.4a1.71 1.71 0 0 1-.6-1.33c0-.34.07-.65.21-.91.14-.26.34-.48.6-.66.24-.17.55-.3.9-.38.37-.1.77-.13 1.2-.13h1.19v-.5a1.12 1.12 0 0 0-.4-.9 1.4 1.4 0 0 0-.48-.26 2.02 2.02 0 0 0-.62-.08c-.21 0-.4.02-.58.08-.17.05-.31.13-.43.22-.11.09-.2.2-.27.32a.83.83 0 0 0-.1.38h-1.09c0-.23.07-.46.18-.68a2 2 0 0 1 .5-.6c.22-.18.48-.32.79-.43a3.57 3.57 0 0 1 2.06-.03 1.94 1.94 0 0 1 1.52 2v2.94a4.18 4.18 0 0 0 .23 1.29v.09h-1.13Zm-1.92-.83a2.1 2.1 0 0 0 1.48-.6c.11-.12.2-.24.26-.36v-1.29h-1c-.38 0-.71.04-1 .1-.27.07-.49.16-.65.3a.86.86 0 0 0-.27.33 1.05 1.05 0 0 0-.01.87c.05.14.13.25.24.34.1.1.23.18.4.23.15.06.34.08.55.08Zm7.52-7.04v1.53h2.42v.84h-2.42v3.44c0 .25.03.45.1.61a.95.95 0 0 0 .63.59c.15.04.3.06.46.06a4.15 4.15 0 0 0 1.06-.13l.26-.06.15.77c-.1.05-.2.1-.33.14a4.33 4.33 0 0 1-2.2.08 1.64 1.64 0 0 1-.64-.39 1.8 1.8 0 0 1-.42-.67c-.1-.27-.16-.6-.16-1v-3.44h-1.66v-.84h1.66v-1.53h1.1Zm4.81 1.53h3.24v5.4h2.07v.94h-5.3v-.94h2.15v-4.46h-2.16v-.94Zm2.02-1.66c0-.1.01-.19.04-.27a.56.56 0 0 1 .33-.33.77.77 0 0 1 .28-.04c.1 0 .2.01.27.04.08.03.14.07.2.12.06.06.1.13.13.2.03.09.05.18.05.28 0 .17-.05.32-.16.44a.68.68 0 0 1-.49.17.7.7 0 0 1-.5-.17.63.63 0 0 1-.15-.44Zm4.72 4.77c0-.46.06-.88.2-1.27.13-.4.32-.74.57-1.03.25-.28.55-.51.9-.68.36-.16.76-.25 1.2-.25a2.8 2.8 0 0 1 2.13.94c.24.28.43.63.56 1.02.14.4.2.81.2 1.27v.13c0 .46-.06.88-.2 1.27a3.1 3.1 0 0 1-.56 1.02 2.66 2.66 0 0 1-2.11.93 2.9 2.9 0 0 1-1.22-.25 2.6 2.6 0 0 1-.9-.68 3.04 3.04 0 0 1-.57-1.02c-.14-.39-.2-.81-.2-1.27v-.13Zm1.08.13c0 .31.04.61.11.9.08.28.19.53.34.74a1.6 1.6 0 0 0 1.36.7 1.57 1.57 0 0 0 1.34-.7c.15-.21.26-.46.34-.74.07-.29.1-.59.1-.9v-.13c0-.3-.03-.6-.1-.88a2.35 2.35 0 0 0-.34-.75 1.69 1.69 0 0 0-.57-.51c-.22-.13-.49-.2-.79-.2-.3 0-.56.07-.78.2-.22.12-.41.3-.56.5-.15.22-.26.47-.34.76-.07.28-.1.57-.1.88v.13ZM222 152v-6.34h.97l.08.94a2.79 2.79 0 0 1 .66-.66 2.46 2.46 0 0 1 1.31-.4c.33 0 .63.05.9.14a1.74 1.74 0 0 1 1.14 1.2c.1.3.16.67.16 1.1V152h-1.09v-4c0-.28-.03-.52-.09-.72-.06-.2-.15-.35-.27-.47a1.24 1.24 0 0 0-.46-.27 2.05 2.05 0 0 0-1.17.01c-.17.05-.33.13-.47.23a2.19 2.19 0 0 0-.59.67V152H222Zm8.63.73h-.97l3.56-9.26h.97l-3.56 9.26Zm6.51-7.07h3.2v6.38c0 .4-.05.77-.17 1.08a2.04 2.04 0 0 1-1.26 1.27c-.3.11-.65.17-1.05.17a9.93 9.93 0 0 1-1.23-.1l.07-.89.26.03a4.46 4.46 0 0 0 .6.03l.23.01a2 2 0 0 0 .57-.08 1.12 1.12 0 0 0 .78-.76c.08-.2.12-.46.12-.76v-5.44h-2.12v-.94Zm1.97-1.67c0-.18.05-.32.16-.45.1-.12.26-.18.48-.18.22 0 .38.06.5.18.1.13.16.27.16.45s-.06.32-.17.45c-.1.11-.27.17-.49.17-.22 0-.38-.06-.48-.17a.65.65 0 0 1-.16-.45Zm8.72 6.33a.75.75 0 0 0-.07-.35.76.76 0 0 0-.26-.28 1.95 1.95 0 0 0-.48-.24c-.2-.07-.45-.14-.75-.2a6.6 6.6 0 0 1-1-.27c-.29-.1-.54-.23-.75-.38a1.63 1.63 0 0 1-.5-.5 1.48 1.48 0 0 1 0-1.41c.12-.24.3-.43.51-.6.22-.17.48-.3.78-.4a3.42 3.42 0 0 1 2.06 0c.31.1.58.25.8.43a1.86 1.86 0 0 1 .68 1.4h-1.08a.82.82 0 0 0-.1-.4 1.14 1.14 0 0 0-.3-.35 1.79 1.79 0 0 0-1.05-.34c-.24 0-.44.03-.62.08-.17.05-.3.12-.42.2a.85.85 0 0 0-.27.3.75.75 0 0 0-.08.36c0 .12.02.23.07.33.04.1.13.19.24.26.12.08.27.15.46.21.2.07.44.13.74.19.39.08.74.17 1.05.28.3.1.56.24.78.38.2.16.37.33.48.53a1.54 1.54 0 0 1-.03 1.46c-.12.23-.3.43-.52.6a3.4 3.4 0 0 1-1.86.51c-.43 0-.8-.06-1.14-.17a2.7 2.7 0 0 1-.85-.47 1.77 1.77 0 0 1-.72-1.44h1.08a1.15 1.15 0 0 0 .57.94c.15.1.32.16.5.2a2.73 2.73 0 0 0 1.32-.04c.22-.07.38-.17.5-.29a.8.8 0 0 0 .17-.25.7.7 0 0 0 .06-.28Zm2.7-1.55a3.72 3.72 0 0 1 .76-2.3 2.77 2.77 0 0 1 2.1-.93 2.8 2.8 0 0 1 2.13.94c.25.28.44.63.57 1.02.13.4.2.81.2 1.27v.13c0 .46-.07.88-.2 1.27a3.1 3.1 0 0 1-.57 1.02 2.66 2.66 0 0 1-2.11.93c-.45 0-.85-.09-1.21-.25a2.6 2.6 0 0 1-.9-.68 3.04 3.04 0 0 1-.58-1.02c-.13-.39-.2-.81-.2-1.27v-.13Zm1.08.13c0 .31.03.61.1.9.08.28.2.53.35.74a1.57 1.57 0 0 0 1.35.7 1.57 1.57 0 0 0 1.35-.7c.15-.21.26-.46.33-.74.08-.29.11-.59.11-.9v-.13c0-.3-.04-.6-.11-.88a2.33 2.33 0 0 0-.34-.75 1.69 1.69 0 0 0-.57-.51 1.5 1.5 0 0 0-.78-.2c-.3 0-.56.07-.79.2-.22.12-.4.3-.55.5a2.1 2.1 0 0 0-.34.76c-.08.28-.11.57-.11.88v.13Zm6.42 3.1v-6.34h.98l.07.94a2.87 2.87 0 0 1 .66-.66 2.46 2.46 0 0 1 1.31-.4c.34 0 .64.05.9.14.28.1.51.24.7.44.2.2.34.46.45.76.1.3.15.67.15 1.1V152h-1.08v-4c0-.28-.03-.52-.1-.72-.06-.2-.15-.35-.27-.47a1.17 1.17 0 0 0-.46-.27 2.04 2.04 0 0 0-1.16.01c-.17.05-.33.13-.48.23a2.19 2.19 0 0 0-.58.67V152h-1.09ZM54.54 169.43c-.05.4-.15.76-.3 1.1a2.64 2.64 0 0 1-1.46 1.4c-.34.12-.7.19-1.12.19a2.69 2.69 0 0 1-2.3-1.18 4.7 4.7 0 0 1-.73-2.6v-1.2a4.7 4.7 0 0 1 .73-2.6 2.72 2.72 0 0 1 2.3-1.19c.43 0 .8.07 1.14.2a2.49 2.49 0 0 1 1.45 1.42c.15.34.25.7.3 1.11h-1.09a3.2 3.2 0 0 0-.18-.72 2 2 0 0 0-.35-.59 1.5 1.5 0 0 0-.53-.39c-.2-.1-.45-.14-.74-.14a1.62 1.62 0 0 0-1.18.47 2 2 0 0 0-.37.5 4.63 4.63 0 0 0-.4 1.92v1.2a6.35 6.35 0 0 0 .17 1.31c.06.22.14.43.23.62.1.2.21.36.36.5.14.15.31.27.5.36.2.08.43.12.7.12.28 0 .52-.05.73-.14.21-.09.39-.21.53-.38.15-.16.26-.35.35-.57.09-.22.15-.46.18-.72h1.08Zm1.38-.66c0-.46.07-.88.2-1.27.13-.4.33-.74.58-1.03a2.68 2.68 0 0 1 2.1-.93 2.8 2.8 0 0 1 2.12.94c.25.28.44.63.57 1.02.13.4.2.81.2 1.27v.13c0 .46-.07.88-.2 1.27-.13.4-.32.73-.57 1.02a2.66 2.66 0 0 1-2.11.93c-.45 0-.85-.09-1.21-.25a2.6 2.6 0 0 1-.9-.68 3.03 3.03 0 0 1-.58-1.02c-.13-.39-.2-.81-.2-1.27v-.13Zm1.09.13c0 .31.03.61.1.9.08.28.2.53.35.74a1.57 1.57 0 0 0 1.35.7 1.57 1.57 0 0 0 1.35-.7c.15-.21.26-.46.33-.74.08-.29.11-.59.11-.9v-.13c0-.3-.04-.6-.11-.88a2.35 2.35 0 0 0-.34-.75 1.69 1.69 0 0 0-.57-.51 1.5 1.5 0 0 0-.78-.2c-.3 0-.56.07-.79.2-.22.12-.4.3-.55.5a2.1 2.1 0 0 0-.34.76c-.08.28-.11.57-.11.88v.13Zm6.42 3.1v-6.34h.98l.07.94a2.82 2.82 0 0 1 .66-.66 2.47 2.47 0 0 1 1.31-.4c.34 0 .64.05.9.14.28.1.52.24.7.44.2.2.34.46.45.76.1.3.15.67.15 1.1V172h-1.08v-4c0-.28-.03-.52-.1-.72-.06-.2-.15-.35-.27-.47a1.17 1.17 0 0 0-.46-.27 2.04 2.04 0 0 0-1.16.01c-.17.05-.33.13-.48.23a2.16 2.16 0 0 0-.58.67V172h-1.09Zm9.78-7.88v1.54h2.41v.84h-2.41v3.44c0 .25.03.45.1.61a.94.94 0 0 0 .62.59c.15.04.3.06.46.06a4.15 4.15 0 0 0 1.06-.13l.26-.06.15.77c-.09.05-.2.1-.33.14a4.31 4.31 0 0 1-2.2.08 1.65 1.65 0 0 1-.63-.39 1.8 1.8 0 0 1-.43-.67c-.1-.27-.15-.6-.15-1v-3.44h-1.67v-.84h1.67v-1.53h1.09Zm7.44 8c-.45 0-.86-.08-1.23-.23a2.8 2.8 0 0 1-1.58-1.61 3.3 3.3 0 0 1-.22-1.23v-.24c0-.52.08-.97.25-1.37a2.84 2.84 0 0 1 2.64-1.9 2.5 2.5 0 0 1 2.05.89c.23.28.4.61.5 1 .12.37.17.78.17 1.22v.5H78.7v.03c.03.31.1.58.18.82a2.06 2.06 0 0 0 1.02 1.07 2.2 2.2 0 0 0 2.58-.7l.67.52c-.21.32-.53.6-.95.86-.42.24-.93.37-1.55.37Zm-.14-5.69c-.22 0-.43.04-.62.13-.2.07-.37.19-.53.34a2.1 2.1 0 0 0-.4.58c-.1.22-.18.48-.22.77h3.4v-.05a2 2 0 0 0-.1-.63 1.83 1.83 0 0 0-.31-.59 1.5 1.5 0 0 0-1.22-.55Zm4.54 5.57v-6.34h.98l.07.94a2.82 2.82 0 0 1 .67-.66 2.47 2.47 0 0 1 1.31-.4c.33 0 .63.05.9.14.27.1.5.24.7.44.19.2.34.46.44.76.1.3.16.67.16 1.1V172h-1.09v-4c0-.28-.03-.52-.1-.72a1 1 0 0 0-.27-.47 1.2 1.2 0 0 0-.45-.27 2.04 2.04 0 0 0-1.17.01c-.17.05-.33.13-.48.23a2.16 2.16 0 0 0-.58.67V172h-1.09Zm9.78-7.88v1.54h2.41v.84h-2.41v3.44c0 .25.03.45.1.61a.94.94 0 0 0 .62.59c.15.04.3.06.46.06a4.15 4.15 0 0 0 1.06-.13l.26-.06.15.77c-.09.05-.2.1-.33.14a4.31 4.31 0 0 1-2.2.08 1.65 1.65 0 0 1-.63-.39 1.8 1.8 0 0 1-.43-.67c-.1-.27-.15-.6-.15-1v-3.44h-1.67v-.84h1.67v-1.53h1.09Zm9.38 4.6h-4.48v-.9h4.48v.9Zm3.69 2.36h4.17v.92h-5.25v-8.53h1.08v7.61Zm8.78 1.04c-.44 0-.85-.08-1.23-.23a2.81 2.81 0 0 1-1.57-1.61 3.3 3.3 0 0 1-.23-1.23v-.24c0-.52.09-.97.25-1.37.16-.41.38-.75.66-1.04a2.84 2.84 0 0 1 3.18-.62 2.41 2.41 0 0 1 1.35 1.65c.12.37.18.78.18 1.22v.5h-4.53v.03c.03.31.09.58.18.82a2.06 2.06 0 0 0 1.02 1.07 2.2 2.2 0 0 0 2.58-.7l.67.52c-.22.32-.53.6-.95.86a3.1 3.1 0 0 1-1.56.37Zm-.14-5.69c-.22 0-.42.04-.62.13-.2.07-.37.19-.53.34-.15.16-.28.35-.4.58-.1.22-.17.48-.22.77h3.41v-.05a2 2 0 0 0-.1-.63 1.82 1.82 0 0 0-.32-.59 1.51 1.51 0 0 0-1.22-.55Zm4.55 5.57v-6.34h.97l.08.94a2.78 2.78 0 0 1 .66-.66 2.47 2.47 0 0 1 1.31-.4c.33 0 .64.05.9.14a1.74 1.74 0 0 1 1.14 1.2c.1.3.16.67.16 1.1V172h-1.08v-4c0-.28-.04-.52-.1-.72-.06-.2-.15-.35-.27-.47a1.24 1.24 0 0 0-.46-.27 2.04 2.04 0 0 0-1.17.01c-.17.05-.33.13-.47.23a2.14 2.14 0 0 0-.59.67V172h-1.08Zm7-3.22c0-.47.06-.9.18-1.3a3 3 0 0 1 .5-1.03 2.3 2.3 0 0 1 1.86-.9c.25 0 .49.02.7.08a1.97 1.97 0 0 1 1.08.72l.05-.69h.99v6.2c0 .42-.07.8-.2 1.12a2.27 2.27 0 0 1-1.4 1.34 3.2 3.2 0 0 1-2.29-.06c-.22-.09-.43-.2-.63-.34s-.37-.31-.52-.52l.57-.65a2.6 2.6 0 0 0 .83.67c.15.07.3.12.44.14a2.06 2.06 0 0 0 1.13-.06 1.4 1.4 0 0 0 .87-.85c.07-.22.11-.46.11-.73v-.55a2.37 2.37 0 0 1-.55.47 2.6 2.6 0 0 1-1.19.28 2.22 2.22 0 0 1-1.84-.93 3.23 3.23 0 0 1-.5-1.02c-.12-.4-.18-.82-.18-1.27v-.12Zm1.1.12c0 .3.02.6.09.88.06.28.16.52.3.73.14.21.32.38.53.5a1.82 1.82 0 0 0 1.28.12 1.54 1.54 0 0 0 .97-.86v-2.9a1.93 1.93 0 0 0-.57-.66 1.63 1.63 0 0 0-.9-.25c-.3 0-.56.06-.78.19-.21.13-.39.3-.52.5-.15.22-.25.47-.31.75-.07.28-.1.57-.1.88v.12Zm8.88-4.78v1.54h2.41v.84h-2.41v3.44c0 .25.03.45.1.61a.94.94 0 0 0 .63.59c.14.04.3.06.45.06a4.15 4.15 0 0 0 1.06-.13l.26-.06.16.77c-.1.05-.2.1-.33.14a4.35 4.35 0 0 1-2.2.08 1.64 1.64 0 0 1-.64-.39 1.8 1.8 0 0 1-.43-.67 2.9 2.9 0 0 1-.15-1v-3.44h-1.66v-.84h1.66v-1.53h1.09Zm5.72 2.48a2.3 2.3 0 0 1 .63-.63c.18-.14.39-.25.61-.32a2.57 2.57 0 0 1 1.62.04 1.74 1.74 0 0 1 1.14 1.22c.1.3.16.67.16 1.1V172h-1.08v-4c0-.25-.03-.47-.1-.66a1.1 1.1 0 0 0-.71-.78c-.18-.07-.4-.1-.63-.1a1.85 1.85 0 0 0-1.37.6c-.1.1-.19.21-.27.34v4.6h-1.08v-9h1.08v3.6Zm8.3 4.7c0-.23.08-.43.22-.6.14-.16.35-.24.64-.24.28 0 .5.08.64.25.14.16.22.35.22.59 0 .23-.08.42-.22.58a.88.88 0 0 1-.64.23c-.28 0-.5-.08-.64-.23a.85.85 0 0 1-.21-.58Zm0-5.14a.9.9 0 0 1 .22-.59c.14-.16.35-.24.64-.24.28 0 .5.08.64.24.14.16.22.36.22.6 0 .23-.08.42-.22.57a.84.84 0 0 1-.64.24c-.28 0-.5-.08-.64-.24a.85.85 0 0 1-.21-.58Zm13.5 1.05h.78c.28 0 .51-.03.72-.1.21-.08.39-.18.53-.31.15-.13.25-.29.33-.47a2 2 0 0 0 .01-1.25 1.2 1.2 0 0 0-.3-.48 1.16 1.16 0 0 0-.46-.26 2.08 2.08 0 0 0-1.27 0 1.3 1.3 0 0 0-.8.76c-.07.18-.1.38-.1.6h-1.1a2.25 2.25 0 0 1 .73-1.66c.23-.21.5-.38.83-.5a3.29 3.29 0 0 1 2.13-.03 2.06 2.06 0 0 1 1.34 1.21c.12.3.18.65.18 1.05a1.89 1.89 0 0 1-.31 1.02 2.2 2.2 0 0 1-1 .83c.28.1.5.21.7.35a1.84 1.84 0 0 1 .68 1.05 3.05 3.05 0 0 1-.14 1.66c-.14.31-.33.57-.57.78-.24.22-.53.38-.86.5a3.5 3.5 0 0 1-2.13 0 2.27 2.27 0 0 1-1.44-1.2 2.3 2.3 0 0 1-.2-1.01h1.08a1.33 1.33 0 0 0 .44 1.08c.14.13.3.23.5.3.21.07.43.1.68.1a2 2 0 0 0 .67-.1c.2-.06.37-.16.5-.29.15-.13.26-.3.33-.5a1.86 1.86 0 0 0-.02-1.38 1.3 1.3 0 0 0-.36-.49 1.57 1.57 0 0 0-.58-.28 2.7 2.7 0 0 0-.74-.1h-.77v-.88Zm10.34 1.92h1.2v.89h-1.2V172h-1.08v-1.98h-3.9v-.64l3.83-5.91h1.15v5.66Zm-3.77 0h2.69v-4.22l-.18.33-2.51 3.9Zm6.97-1.4.43-4.26h4.38v1.05h-3.47l-.24 2.28a2.7 2.7 0 0 1 1.42-.37c.4 0 .75.07 1.06.2a2.28 2.28 0 0 1 1.3 1.48 4.11 4.11 0 0 1 .02 2.3 2.3 2.3 0 0 1-1.33 1.5c-.34.14-.73.2-1.19.2-.35 0-.67-.04-.98-.14a2.44 2.44 0 0 1-1.42-1.18c-.15-.3-.25-.64-.29-1.03h1.03c.07.48.25.85.54 1.1.29.25.67.37 1.12.37a1.4 1.4 0 0 0 1.19-.53c.13-.17.23-.37.3-.61a2.82 2.82 0 0 0-.01-1.54 1.55 1.55 0 0 0-.86-1 1.7 1.7 0 0 0-.73-.15 2.37 2.37 0 0 0-.82.15c-.1.04-.2.1-.3.17l-.28.22-.87-.22Zm-125.4 46.42a2.03 2.03 0 0 1-1.68-.92 3.44 3.44 0 0 1-.53-1.81v-.99c0-.56-.13-.97-.4-1.22-.27-.26-.68-.39-1.23-.4v-.84c.55 0 .96-.13 1.23-.38s.4-.66.4-1.23v-1a3.14 3.14 0 0 1 .52-1.85 2 2 0 0 1 1.7-.87l.11.68a1.07 1.07 0 0 0-1.04.67c-.09.2-.14.41-.16.66a5.8 5.8 0 0 0-.04.72v1c0 .46-.1.87-.33 1.23a2 2 0 0 1-1 .8c.45.18.79.45 1 .8.22.36.33.77.33 1.23v.99c0 .24.02.48.06.72.04.24.1.46.2.65.1.2.22.36.38.48a1 1 0 0 0 .6.2l-.12.68Zm11.64 9.49-.12 2.17h-.76V223h.88v.64Zm2.1 0-.13 2.17h-.75V223h.88v.64Zm2.97 5.14c0-.47.05-.9.17-1.3.12-.4.3-.74.52-1.03a2.27 2.27 0 0 1 1.85-.9c.37 0 .7.06.98.19.29.12.53.3.74.55V223h1.09v9h-1l-.05-.67c-.2.26-.46.45-.75.59-.3.13-.64.2-1.03.2a2.2 2.2 0 0 1-1.83-.93 3.29 3.29 0 0 1-.51-1.02c-.12-.4-.18-.82-.18-1.27v-.12Zm1.08.12c0 .3.03.6.1.88s.17.52.31.73a1.5 1.5 0 0 0 1.3.69c.36 0 .66-.08.9-.25.24-.16.43-.38.57-.66v-2.94a1.8 1.8 0 0 0-.57-.63 1.5 1.5 0 0 0-.89-.26 1.5 1.5 0 0 0-1.31.69c-.14.22-.24.47-.31.75s-.1.57-.1.88v.12Zm10.5 3.1a1.26 1.26 0 0 1-.11-.3 4.04 4.04 0 0 1-.05-.4 2.99 2.99 0 0 1-.81.58 2.84 2.84 0 0 1-1.11.24 2.6 2.6 0 0 1-.91-.15c-.27-.1-.5-.23-.69-.4a1.72 1.72 0 0 1-.6-1.33c0-.34.07-.65.2-.91.15-.26.35-.48.6-.66.25-.17.56-.3.91-.38.36-.1.76-.13 1.2-.13h1.19v-.5c0-.2-.04-.37-.1-.52a1.12 1.12 0 0 0-.3-.39 1.4 1.4 0 0 0-.48-.25c-.18-.06-.4-.08-.62-.08-.22 0-.41.02-.58.08a1.22 1.22 0 0 0-.71.54.82.82 0 0 0-.09.38h-1.09a1.77 1.77 0 0 1 .68-1.28c.22-.18.48-.32.79-.43a3.56 3.56 0 0 1 2.06-.03 1.94 1.94 0 0 1 1.52 2v2.94a4.17 4.17 0 0 0 .22 1.29v.09h-1.13Zm-1.92-.83a2.09 2.09 0 0 0 1.48-.6c.1-.12.2-.24.26-.36v-1.29h-1.01c-.37 0-.7.04-.98.1-.28.07-.5.16-.67.3-.11.09-.2.2-.27.33-.05.13-.08.28-.08.44 0 .16.02.3.07.43a.9.9 0 0 0 .24.34c.1.1.24.18.4.23.16.06.35.08.56.08Zm7.52-7.04v1.53h2.42v.84h-2.42v3.44c0 .25.03.45.1.61a.94.94 0 0 0 .63.59c.14.04.3.06.45.06a4.15 4.15 0 0 0 1.07-.13l.25-.06.16.77c-.1.05-.2.1-.33.14a4.32 4.32 0 0 1-2.2.08 1.65 1.65 0 0 1-.64-.39 1.8 1.8 0 0 1-.43-.67c-.1-.27-.15-.6-.15-1v-3.44h-1.66v-.84h1.66v-1.53h1.1Zm8.8 7.87a1.26 1.26 0 0 1-.1-.3 4 4 0 0 1-.05-.4 2.98 2.98 0 0 1-.8.58 2.84 2.84 0 0 1-1.12.24c-.33 0-.64-.05-.91-.15-.27-.1-.5-.23-.69-.4a1.72 1.72 0 0 1-.6-1.33c0-.34.07-.65.21-.91.14-.26.34-.48.6-.66.25-.17.55-.3.9-.38.37-.1.77-.13 1.2-.13h1.2v-.5c0-.2-.04-.37-.11-.52a1.12 1.12 0 0 0-.3-.39 1.4 1.4 0 0 0-.48-.25 1.98 1.98 0 0 0-.62-.08c-.21 0-.4.02-.58.08-.17.05-.3.13-.43.22-.11.09-.2.2-.27.32a.82.82 0 0 0-.1.38H92.3c0-.23.06-.46.17-.68.12-.22.29-.43.5-.6.22-.18.48-.32.79-.43a3.57 3.57 0 0 1 2.06-.03 1.94 1.94 0 0 1 1.52 2v2.94a4.18 4.18 0 0 0 .23 1.29v.09h-1.13Zm-1.9-.83a2.09 2.09 0 0 0 1.47-.6c.11-.12.2-.24.26-.36v-1.29h-1c-.38 0-.7.04-.99.1-.28.07-.5.16-.66.3-.12.09-.2.2-.27.33a1.2 1.2 0 0 0-.01.87.9.9 0 0 0 .24.34c.1.1.23.18.4.23.16.06.34.08.55.08Zm6.89-7.53-.13 2.17h-.76V223h.89v.64Zm2.09 0-.12 2.17h-.76V223h.89l-.01.64Zm5.36 7.66c0-.23.07-.43.2-.6.15-.16.36-.24.64-.24.29 0 .5.08.64.25.15.16.23.35.23.59 0 .23-.08.42-.23.58-.15.15-.36.23-.64.23s-.49-.08-.63-.23a.85.85 0 0 1-.21-.58Zm0-5.14c0-.23.07-.42.2-.59.15-.16.36-.24.64-.24.29 0 .5.08.64.24.15.16.23.36.23.6 0 .23-.08.42-.23.57-.15.16-.36.24-.64.24s-.49-.08-.63-.24a.85.85 0 0 1-.21-.58Zm14.17-2.52-.12 2.17h-.77l.01-2.08V223h.88v.64Zm2.1 0-.13 2.17h-.76V223h.89v.64Zm7.24 6.15h-2.85l-.68 2.21h-1.09l2.76-8.53h.9l2.71 8.53h-1.08l-.67-2.2Zm-2.56-.94h2.27l-1.12-3.7-1.15 3.7Zm5.68 3.15v-8.53h2.54c.35 0 .7.05 1.03.14.34.08.63.22.9.4.26.19.47.42.62.7a2.06 2.06 0 0 1 .12 1.64 1.7 1.7 0 0 1-.27.5c-.13.14-.26.27-.4.37-.15.1-.33.2-.54.29v.01a2.16 2.16 0 0 1 1.11.72 2.1 2.1 0 0 1 .43 1.3 2.22 2.22 0 0 1-.84 1.81c-.27.21-.57.37-.91.48-.34.1-.7.17-1.06.17h-2.73Zm1.1-3.99v3.07h1.66a1.82 1.82 0 0 0 1.18-.42c.16-.13.28-.28.38-.47.09-.19.13-.4.13-.64a1.47 1.47 0 0 0-.46-1.12 1.6 1.6 0 0 0-.52-.3c-.2-.07-.42-.11-.65-.12h-1.73Zm0-.9h1.5c.2 0 .4-.04.6-.1.2-.06.37-.15.52-.27.16-.1.28-.25.37-.42.1-.17.14-.36.14-.58a1.23 1.23 0 0 0-.5-1.03c-.16-.1-.34-.18-.54-.23a2.5 2.5 0 0 0-.62-.08h-1.48v2.7Zm11.65 2.32c-.05.4-.16.76-.3 1.1a2.64 2.64 0 0 1-1.46 1.4c-.34.12-.72.19-1.13.19a2.68 2.68 0 0 1-2.3-1.18 4.75 4.75 0 0 1-.73-2.6v-1.2a4.76 4.76 0 0 1 .73-2.6 2.71 2.71 0 0 1 2.3-1.19c.43 0 .81.07 1.15.2a2.48 2.48 0 0 1 1.44 1.42c.15.34.25.7.3 1.11h-1.09c-.03-.26-.1-.5-.18-.72-.09-.22-.2-.42-.34-.59a1.5 1.5 0 0 0-.54-.39c-.2-.1-.45-.14-.74-.14a1.65 1.65 0 0 0-1.18.47c-.15.14-.27.3-.37.5a3.46 3.46 0 0 0-.36 1.27l-.03.65v1.2l.03.66a4.83 4.83 0 0 0 .36 1.27c.1.2.21.36.36.5.14.15.31.27.5.36.2.08.43.12.7.12.28 0 .52-.05.73-.14.21-.09.39-.21.53-.38.15-.16.26-.35.35-.57.09-.22.15-.46.18-.72h1.09Zm5.2 2.57h-1.09v-7.15l-2.23.85v-.99l3.23-1.24h.08V232Zm8.92 0h-5.6v-.78l2.8-3.1.63-.74c.17-.22.3-.42.4-.6a1.98 1.98 0 0 0 .28-1.01 1.65 1.65 0 0 0-.4-1.08 1.52 1.52 0 0 0-1.1-.45c-.29 0-.53.04-.75.13a1.38 1.38 0 0 0-.83.9c-.06.2-.1.45-.1.71h-1.09c0-.36.07-.7.2-1.01a2.49 2.49 0 0 1 1.4-1.41c.34-.14.73-.2 1.17-.2.4 0 .76.05 1.08.17.33.12.6.28.82.5.23.2.4.46.51.75a2.42 2.42 0 0 1 .06 1.7c-.09.24-.2.49-.35.73-.15.24-.32.48-.52.72l-.6.7-2.3 2.49h4.29v.88Zm3.24-4.79h.77c.28 0 .51-.03.72-.1.21-.08.39-.18.53-.31.15-.13.25-.29.33-.47a2 2 0 0 0 .01-1.25 1.2 1.2 0 0 0-.3-.48 1.16 1.16 0 0 0-.46-.26 2.08 2.08 0 0 0-1.27 0 1.3 1.3 0 0 0-.8.76c-.07.18-.1.38-.1.6h-1.1a2.25 2.25 0 0 1 .73-1.66c.23-.21.5-.38.83-.5a3.29 3.29 0 0 1 2.13-.03 2.06 2.06 0 0 1 1.34 1.21c.12.3.18.65.18 1.05a1.89 1.89 0 0 1-.31 1.02 2.2 2.2 0 0 1-1 .83c.28.1.5.21.7.35a1.84 1.84 0 0 1 .68 1.05 3.05 3.05 0 0 1-.14 1.66c-.14.31-.33.57-.57.78-.24.22-.53.38-.86.5a3.5 3.5 0 0 1-2.13 0 2.27 2.27 0 0 1-1.44-1.2 2.3 2.3 0 0 1-.2-1.01h1.08a1.33 1.33 0 0 0 .44 1.08c.14.13.3.23.5.3.21.07.43.1.68.1a2 2 0 0 0 .67-.1c.2-.06.37-.16.5-.29.15-.13.26-.3.33-.5a1.86 1.86 0 0 0-.02-1.38 1.3 1.3 0 0 0-.36-.49 1.57 1.57 0 0 0-.58-.28 2.7 2.7 0 0 0-.74-.1h-.77v-.88Zm7.88-3.57-.13 2.17h-.76l.01-2.08V223h.88v.64Zm2.09 0-.12 2.17h-.76V223h.89l-.01.64ZM49.89 253.47a1 1 0 0 0 .6-.2c.16-.12.29-.28.39-.48.1-.19.16-.4.2-.65.04-.24.06-.48.06-.72v-.99c0-.3.05-.6.14-.86a1.8 1.8 0 0 1 .76-.95c.13-.08.27-.16.42-.22a1.9 1.9 0 0 1-1.19-1.19 2.6 2.6 0 0 1-.13-.85v-1c0-.23-.01-.47-.04-.71a2.25 2.25 0 0 0-.16-.66 1.07 1.07 0 0 0-1.04-.67l.12-.68a2.02 2.02 0 0 1 1.65.82c.2.27.33.57.42.91.09.34.13.67.13 1v1c0 .23.03.44.07.61.05.18.11.33.2.46.13.19.31.32.54.4.23.09.5.13.82.13v.85c-.28 0-.52.04-.73.1a1.16 1.16 0 0 0-.8.8c-.06.2-.1.44-.1.71v.99c0 .31-.04.63-.12.94a2.8 2.8 0 0 1-.4.88c-.19.26-.42.47-.7.64-.27.17-.6.26-.98.27l-.13-.68ZM150.84 25.52h-1.7V29h-1.08v-8.53h2.5c.4 0 .78.06 1.13.17.35.1.66.26.92.47.26.21.47.48.62.8a2.56 2.56 0 0 1-.22 2.5c-.14.2-.31.36-.5.5-.2.15-.42.27-.65.38l1.8 3.64V29h-1.14l-1.68-3.48Zm-1.7-.9h1.45c.24 0 .47-.03.69-.1a2 2 0 0 0 .57-.32 1.5 1.5 0 0 0 .52-1.18c0-.28-.05-.51-.14-.72a1.43 1.43 0 0 0-.95-.83c-.22-.07-.46-.1-.72-.11h-1.42v3.27Zm8.89 4.5c-.45 0-.86-.08-1.23-.23a2.79 2.79 0 0 1-1.58-1.61 3.29 3.29 0 0 1-.22-1.23v-.24a3.43 3.43 0 0 1 .9-2.41 2.86 2.86 0 0 1 1.99-.86 2.5 2.5 0 0 1 2.05.89c.22.28.4.61.5 1 .12.37.17.78.17 1.22v.5h-4.53v.03c.03.31.09.58.18.82a2.05 2.05 0 0 0 1.02 1.07 2.2 2.2 0 0 0 2.58-.7l.67.52c-.21.32-.53.6-.95.86a3.1 3.1 0 0 1-1.55.37Zm-.14-5.69c-.22 0-.43.04-.62.13-.2.07-.38.19-.53.34-.16.16-.3.35-.4.58-.1.22-.18.48-.22.77h3.4v-.05a2 2 0 0 0-.1-.63 1.81 1.81 0 0 0-.31-.59 1.5 1.5 0 0 0-1.22-.55Zm4.34 2.35c0-.48.06-.9.17-1.3.12-.4.28-.74.5-1.03a2.33 2.33 0 0 1 1.9-.9c.22 0 .43.02.63.06a2.03 2.03 0 0 1 1.1.68l.05-.63h1v8.78h-1.09v-3.01a2.36 2.36 0 0 1-.63.46 2.72 2.72 0 0 1-1.08.23 2.3 2.3 0 0 1-1.87-.93 3.18 3.18 0 0 1-.5-1.02 4.6 4.6 0 0 1-.18-1.27v-.12Zm1.09.12c0 .3.03.6.1.89.07.28.17.52.31.74.15.21.32.39.54.51a1.73 1.73 0 0 0 1.63-.03 1.64 1.64 0 0 0 .59-.62v-3.13a1.75 1.75 0 0 0-.25-.33 1.51 1.51 0 0 0-.72-.43 1.7 1.7 0 0 0-.46-.07 1.5 1.5 0 0 0-1.32.71c-.14.22-.25.47-.32.75s-.1.58-.1.89v.12Zm10.5 3.1-.07-.87c-.2.3-.47.55-.79.73-.31.17-.68.26-1.1.26-.33 0-.63-.05-.9-.16-.27-.1-.5-.26-.69-.48a2.3 2.3 0 0 1-.44-.83c-.1-.34-.15-.75-.15-1.22v-3.77h1.08v3.78c0 .34.03.63.08.85.06.23.14.41.25.54.1.14.24.24.4.3a2.38 2.38 0 0 0 1.2 0c.19-.07.35-.15.5-.25a1.78 1.78 0 0 0 .53-.67v-4.55h1.08V29h-.98Zm5.83.12c-.45 0-.86-.08-1.23-.23a2.8 2.8 0 0 1-1.58-1.61 3.29 3.29 0 0 1-.22-1.23v-.24c0-.52.08-.97.25-1.37a2.86 2.86 0 0 1 2.64-1.9 2.5 2.5 0 0 1 2.05.89c.22.28.4.61.5 1 .12.37.17.78.17 1.22v.5h-4.53v.03c.03.31.1.58.19.82a2.05 2.05 0 0 0 1.01 1.07 2.2 2.2 0 0 0 2.58-.7l.67.52c-.21.32-.53.6-.95.86-.42.24-.93.37-1.55.37Zm-.14-5.69c-.22 0-.43.04-.62.13-.2.07-.37.19-.53.34-.16.16-.29.35-.4.58-.1.22-.18.48-.22.77h3.4v-.05a2 2 0 0 0-.1-.63 1.83 1.83 0 0 0-.31-.59 1.5 1.5 0 0 0-1.22-.55Zm8.76 3.89a.76.76 0 0 0-.08-.35.76.76 0 0 0-.26-.28 2 2 0 0 0-.48-.24c-.2-.07-.44-.14-.74-.2a6.6 6.6 0 0 1-1-.27c-.3-.1-.55-.23-.76-.38a1.62 1.62 0 0 1-.5-.5c-.11-.2-.17-.44-.17-.7 0-.26.06-.5.18-.72.12-.23.29-.42.5-.6.23-.16.49-.3.79-.39a3.4 3.4 0 0 1 2.06 0c.3.1.57.25.8.43a1.87 1.87 0 0 1 .68 1.4h-1.09a.82.82 0 0 0-.1-.4 1.15 1.15 0 0 0-.3-.35 1.5 1.5 0 0 0-.45-.24 2.2 2.2 0 0 0-1.2-.02 1.5 1.5 0 0 0-.44.2.87.87 0 0 0-.26.3.76.76 0 0 0-.02.69c.05.1.13.18.25.26.11.08.26.15.45.21.2.07.45.13.74.19.4.08.74.17 1.05.28.31.1.57.23.78.38.21.16.37.33.48.53.11.2.17.43.17.7 0 .27-.06.53-.2.76-.12.23-.3.43-.52.6a3.49 3.49 0 0 1-1.85.51 3.7 3.7 0 0 1-1.15-.17 2.72 2.72 0 0 1-.85-.47 1.77 1.77 0 0 1-.72-1.44h1.09c.01.23.07.42.17.57.1.15.24.28.4.37.15.1.31.16.5.2a2.72 2.72 0 0 0 1.31-.04c.22-.07.39-.17.5-.29a.8.8 0 0 0 .18-.24.71.71 0 0 0 .06-.3Zm5.56-6.2v1.54h2.41v.84h-2.41v3.44c0 .25.03.45.1.61a.93.93 0 0 0 .63.59c.14.04.3.06.45.06a3.9 3.9 0 0 0 1.06-.13l.26-.06.15.77c-.09.05-.2.1-.33.14a3.69 3.69 0 0 1-.9.17l-.5.03a2.6 2.6 0 0 1-.8-.12 1.65 1.65 0 0 1-.63-.39 1.8 1.8 0 0 1-.43-.66 3 3 0 0 1-.15-1V23.5h-1.67v-.84h1.67v-1.54h1.09Zm186.47 89.4h-1.71V114h-1.08v-8.53h2.5c.4 0 .77.06 1.13.17.35.1.66.26.92.47.26.21.47.48.62.8a2.56 2.56 0 0 1-.23 2.5c-.14.2-.3.36-.5.5-.2.15-.41.27-.64.38l1.8 3.64v.07h-1.14l-1.68-3.48Zm-1.71-.9h1.45a1.81 1.81 0 0 0 1.25-.43 1.48 1.48 0 0 0 .52-1.17c0-.28-.04-.51-.13-.72a1.46 1.46 0 0 0-.95-.83c-.22-.07-.46-.1-.72-.11h-1.42v3.27Zm8.89 4.5c-.45 0-.86-.08-1.24-.23a2.81 2.81 0 0 1-1.57-1.61 3.3 3.3 0 0 1-.23-1.23v-.24c0-.52.09-.97.25-1.37.17-.41.38-.75.66-1.04a2.84 2.84 0 0 1 3.18-.62c.34.16.63.38.86.65.22.28.39.61.5 1 .11.37.17.78.17 1.22v.5h-4.53v.03c.03.31.09.58.18.82a2.06 2.06 0 0 0 1.02 1.07 2.2 2.2 0 0 0 2.58-.7l.67.52c-.21.32-.53.6-.95.86a3.1 3.1 0 0 1-1.55.37Zm-.15-5.69c-.21 0-.42.04-.62.13-.2.08-.37.19-.52.34-.16.16-.3.35-.4.58-.1.22-.18.48-.23.77h3.42v-.05c0-.2-.04-.4-.12-.63a1.82 1.82 0 0 0-.3-.59 1.51 1.51 0 0 0-1.23-.55Zm4.35 2.35c0-.47.06-.9.17-1.3a3 3 0 0 1 .5-1.03 2.32 2.32 0 0 1 1.9-.9c.22 0 .43.02.63.06a2.03 2.03 0 0 1 1.1.68l.05-.63h1v8.78h-1.09v-3.01a2.38 2.38 0 0 1-.63.46 2.74 2.74 0 0 1-1.08.23c-.4 0-.76-.09-1.08-.25a2.36 2.36 0 0 1-.8-.68 3.2 3.2 0 0 1-.5-1.02c-.11-.4-.17-.82-.17-1.27v-.12Zm1.09.12c0 .3.03.6.1.88.07.29.17.53.31.75.14.21.32.39.53.52.22.12.48.18.78.18a1.73 1.73 0 0 0 .85-.21c.13-.08.24-.17.34-.27.1-.11.18-.23.26-.36v-3.13a1.76 1.76 0 0 0-.26-.33 1.52 1.52 0 0 0-.72-.43 1.29 1.29 0 0 0-.45-.07 1.5 1.5 0 0 0-1.32.71 2.4 2.4 0 0 0-.32.75c-.07.28-.1.58-.1.89v.12Zm10.5 3.1-.07-.87c-.21.3-.47.55-.79.73a2.56 2.56 0 0 1-2 .1c-.27-.1-.5-.26-.69-.48-.2-.22-.34-.5-.45-.83a4.3 4.3 0 0 1-.15-1.22v-3.77h1.09v3.78c0 .34.02.63.08.86.05.22.14.4.25.53.1.14.24.24.4.3a2.36 2.36 0 0 0 1.2 0c.19-.07.35-.15.5-.25a1.77 1.77 0 0 0 .53-.67v-4.55h1.08V114h-.98Zm5.83.12c-.45 0-.86-.08-1.24-.23a2.81 2.81 0 0 1-1.57-1.61 3.3 3.3 0 0 1-.22-1.23v-.24c0-.52.08-.97.24-1.37.17-.41.38-.75.66-1.04a2.84 2.84 0 0 1 3.18-.62c.34.16.63.38.86.65.22.28.39.61.5 1 .11.37.17.78.17 1.22v.5h-4.53v.03c.03.31.09.58.18.82a2.06 2.06 0 0 0 1.02 1.07 2.21 2.21 0 0 0 2.58-.7l.67.52c-.21.32-.53.6-.95.86a3.1 3.1 0 0 1-1.55.37Zm-.15-5.69c-.21 0-.42.04-.62.13-.2.08-.37.19-.52.34a2.1 2.1 0 0 0-.4.58c-.1.22-.18.48-.22.77h3.4v-.05c0-.2-.03-.4-.1-.63a1.82 1.82 0 0 0-.32-.59 1.51 1.51 0 0 0-1.22-.55Zm8.76 3.89a.77.77 0 0 0-.07-.35.76.76 0 0 0-.26-.28 1.94 1.94 0 0 0-.48-.24c-.2-.07-.45-.14-.74-.2-.37-.07-.7-.16-1-.27-.3-.1-.55-.23-.76-.38a1.65 1.65 0 0 1-.5-.5c-.12-.2-.17-.44-.17-.7 0-.26.06-.5.18-.72.12-.23.29-.42.5-.6a2.86 2.86 0 0 1 1.78-.54c.4 0 .75.05 1.06.15.31.1.58.25.8.43a1.86 1.86 0 0 1 .68 1.4h-1.08a.83.83 0 0 0-.1-.4 1.14 1.14 0 0 0-.3-.35c-.12-.1-.27-.18-.45-.24a2.2 2.2 0 0 0-1.2-.02c-.18.05-.33.12-.44.2a.87.87 0 0 0-.26.3.76.76 0 0 0-.1.35c0 .13.03.24.08.34.05.1.13.19.25.26.1.08.26.15.45.21.2.07.44.13.74.19.4.08.74.17 1.05.28.3.1.57.23.78.38.2.16.37.33.48.53a1.55 1.55 0 0 1-.02 1.46c-.13.23-.3.43-.53.6-.23.16-.5.28-.82.37a3.78 3.78 0 0 1-2.18-.03 2.69 2.69 0 0 1-.85-.47 1.77 1.77 0 0 1-.72-1.43h1.08a1.13 1.13 0 0 0 .57.93c.15.1.32.16.51.2a2.72 2.72 0 0 0 1.31-.04c.22-.07.38-.17.5-.29a.8.8 0 0 0 .18-.24.7.7 0 0 0 .05-.3Zm5.56-6.2v1.54h2.42v.84h-2.42v3.44c0 .25.04.45.1.61a.95.95 0 0 0 .63.59c.15.04.3.06.46.06a4.15 4.15 0 0 0 1.06-.13l.26-.06.15.77c-.09.05-.2.1-.33.14a4.35 4.35 0 0 1-2.2.08 1.64 1.64 0 0 1-.63-.39 1.8 1.8 0 0 1-.43-.67c-.1-.27-.15-.6-.15-1v-3.44h-1.67v-.84h1.67v-1.53h1.08Zm12.94 2.48a2.3 2.3 0 0 1 .62-.63c.19-.14.4-.25.61-.32a2.57 2.57 0 0 1 1.63.04c.27.1.5.24.7.45.19.2.33.46.43.77.1.3.16.67.16 1.1V114h-1.08v-4c0-.25-.03-.47-.1-.66a1.1 1.1 0 0 0-.71-.78 1.7 1.7 0 0 0-.63-.1 1.85 1.85 0 0 0-1.37.6c-.1.1-.19.21-.26.33V114h-1.09v-9h1.09v3.6Zm8.92 5.52c-.44 0-.86-.08-1.23-.23a2.81 2.81 0 0 1-1.58-1.61 3.3 3.3 0 0 1-.22-1.23v-.24c0-.52.08-.97.25-1.37a2.84 2.84 0 0 1 3.84-1.65 2.36 2.36 0 0 1 1.35 1.64c.12.37.17.78.17 1.22v.5h-4.52v.03c.02.31.08.58.18.82a2.07 2.07 0 0 0 1.02 1.07 2.21 2.21 0 0 0 2.58-.7l.66.52c-.2.32-.52.6-.95.86-.41.24-.93.37-1.55.37Zm-.14-5.69c-.22 0-.43.04-.62.13a1.66 1.66 0 0 0-.93.92c-.1.22-.18.48-.22.77h3.41v-.05a2 2 0 0 0-.42-1.22 1.51 1.51 0 0 0-1.22-.55Zm8.71 5.57a1.25 1.25 0 0 1-.1-.3 3.94 3.94 0 0 1-.06-.4 3 3 0 0 1-.8.58 2.85 2.85 0 0 1-1.11.24c-.34 0-.64-.05-.92-.15-.26-.1-.5-.23-.68-.4a1.71 1.71 0 0 1-.6-1.33c0-.34.07-.65.2-.91.15-.26.35-.48.6-.66.25-.17.56-.3.91-.39.36-.08.76-.12 1.2-.12h1.19v-.5c0-.2-.04-.36-.1-.52a1.12 1.12 0 0 0-.3-.39 1.4 1.4 0 0 0-.48-.25 2.02 2.02 0 0 0-.62-.08c-.22 0-.41.02-.58.08a1.22 1.22 0 0 0-.71.54.83.83 0 0 0-.09.38h-1.09a1.77 1.77 0 0 1 .68-1.28c.21-.18.48-.32.78-.43a3.57 3.57 0 0 1 2.06-.03 1.94 1.94 0 0 1 1.52 2v2.94a4.18 4.18 0 0 0 .23 1.29v.09h-1.13Zm-1.91-.83a2.1 2.1 0 0 0 1.48-.6c.1-.12.2-.24.26-.36v-1.29h-1.01c-.38 0-.7.04-.98.1-.28.07-.5.16-.67.3-.11.09-.2.2-.27.33-.06.13-.08.28-.08.44 0 .16.02.3.07.43a.9.9 0 0 0 .24.34c.1.1.24.18.4.23.16.06.35.08.56.08Zm4.75-2.4c0-.46.06-.9.17-1.3.13-.4.3-.73.52-1.02a2.27 2.27 0 0 1 1.85-.9c.38 0 .7.06.99.19.28.12.53.3.74.55V105h1.08v9h-1l-.04-.67c-.22.26-.47.45-.76.59-.3.13-.63.2-1.03.2a2.21 2.21 0 0 1-1.83-.93 3.3 3.3 0 0 1-.5-1.02c-.13-.4-.2-.82-.2-1.27v-.12Zm1.08.13c0 .3.04.6.1.88.07.28.17.52.31.73.14.21.32.38.53.5.21.13.47.19.77.19a1.55 1.55 0 0 0 1.47-.91v-2.94a1.8 1.8 0 0 0-.56-.63 1.5 1.5 0 0 0-.9-.26c-.3 0-.56.07-.78.19-.21.13-.39.3-.53.5-.14.22-.24.47-.3.75-.07.28-.1.57-.1.88v.12Zm9.13 3.22c-.44 0-.85-.08-1.23-.23a2.81 2.81 0 0 1-1.57-1.61 3.3 3.3 0 0 1-.23-1.23v-.24c0-.52.08-.97.25-1.37a2.85 2.85 0 0 1 2.64-1.9c.46 0 .86.08 1.2.24a2.41 2.41 0 0 1 1.35 1.65c.12.37.18.78.18 1.22v.5h-4.53v.03c.02.31.08.58.18.82a2.07 2.07 0 0 0 1.02 1.07 2.2 2.2 0 0 0 2.58-.7l.66.52a2.83 2.83 0 0 1-2.5 1.23Zm-.14-5.69c-.22 0-.42.04-.62.13a1.66 1.66 0 0 0-.93.92c-.1.22-.18.48-.22.77h3.41v-.05a2 2 0 0 0-.42-1.22 1.51 1.51 0 0 0-1.22-.55Zm8.7-.89a5 5 0 0 1 1.12.15l-.15 1.07a5.33 5.33 0 0 0-1.2-.14c-.26 0-.5.03-.72.1a1.64 1.64 0 0 0-.94.69c-.1.15-.2.33-.26.52V114h-1.1v-6.34h1.04l.04.85.01.16c.26-.35.57-.62.93-.82.36-.2.77-.3 1.23-.3Zm7.27 4.78a.75.75 0 0 0-.08-.35.76.76 0 0 0-.26-.28 1.95 1.95 0 0 0-.48-.24 5 5 0 0 0-.74-.2 7.5 7.5 0 0 1-1-.27c-.3-.1-.55-.23-.76-.38a1.63 1.63 0 0 1-.5-.5c-.11-.2-.17-.44-.17-.7 0-.26.06-.5.18-.72.12-.23.3-.42.5-.6.23-.16.49-.3.79-.4.3-.09.64-.14 1-.14.4 0 .74.05 1.06.15.3.1.57.25.8.43a1.86 1.86 0 0 1 .68 1.4h-1.09a.82.82 0 0 0-.1-.4 1.14 1.14 0 0 0-.3-.35c-.12-.1-.27-.18-.45-.24s-.38-.1-.6-.1c-.23 0-.43.03-.6.08a1.5 1.5 0 0 0-.44.2.85.85 0 0 0-.26.3.75.75 0 0 0-.09.35c0 .13.02.24.07.34.05.1.13.19.25.26.11.08.26.15.45.21.2.07.45.13.74.19.4.08.74.17 1.05.28.31.1.57.23.78.38.21.16.37.33.48.53.12.2.17.43.17.7 0 .27-.06.53-.2.76-.12.23-.3.43-.52.6a3.49 3.49 0 0 1-1.85.51 3.7 3.7 0 0 1-1.15-.17 2.69 2.69 0 0 1-.85-.47 1.77 1.77 0 0 1-.72-1.43h1.08c.02.22.08.4.18.56.1.15.24.28.4.37.15.1.32.16.5.2a2.73 2.73 0 0 0 1.32-.04c.21-.07.38-.17.5-.29a.83.83 0 0 0 .17-.24.7.7 0 0 0 .06-.3Zm-102.51 45.2h-1.7V161h-1.09v-8.53h2.5c.4 0 .78.06 1.13.17.35.1.66.26.93.47.26.21.46.48.61.8.15.32.23.69.23 1.12a2.26 2.26 0 0 1-.45 1.39 2.63 2.63 0 0 1-1.15.87l1.81 3.64v.07h-1.15l-1.67-3.48Zm-1.7-.9h1.44a1.8 1.8 0 0 0 1.25-.43 1.5 1.5 0 0 0 .53-1.17c0-.28-.04-.51-.13-.72a1.46 1.46 0 0 0-.95-.83c-.22-.07-.46-.1-.72-.11h-1.43v3.27Zm8.88 4.5c-.44 0-.86-.08-1.23-.23a2.8 2.8 0 0 1-1.58-1.61 3.3 3.3 0 0 1-.22-1.23v-.24c0-.52.08-.97.25-1.37a2.85 2.85 0 0 1 2.64-1.9 2.5 2.5 0 0 1 2.05.89c.23.28.4.61.5 1 .12.37.17.78.17 1.22v.5h-4.52v.03c.02.31.08.58.18.82a2.07 2.07 0 0 0 1.02 1.07 2.2 2.2 0 0 0 2.58-.7l.66.52c-.2.32-.52.6-.95.86-.42.24-.93.37-1.55.37Zm-.14-5.69c-.22 0-.43.04-.62.13-.2.07-.37.19-.53.34a2.29 2.29 0 0 0-.62 1.35h3.41v-.05a2 2 0 0 0-.42-1.22 1.51 1.51 0 0 0-1.22-.55Zm4.54 8v-8.77h1l.04.7a1.96 1.96 0 0 1 .61-.53 2.66 2.66 0 0 1 2.27-.05c.32.16.58.39.8.67.2.29.36.63.47 1.03.11.4.17.83.17 1.3v.12c0 .45-.06.88-.17 1.27-.1.4-.27.73-.48 1.02a2.22 2.22 0 0 1-1.84.93c-.25 0-.47-.03-.68-.08a2.25 2.25 0 0 1-.85-.4 2.38 2.38 0 0 1-.26-.25v3.05h-1.08Zm4.27-5.65c0-.31-.03-.6-.1-.88a2.33 2.33 0 0 0-.31-.75 1.56 1.56 0 0 0-1.33-.7c-.17.01-.33.03-.47.07a1.54 1.54 0 0 0-.72.45c-.1.1-.18.23-.26.36v3.05c.07.12.15.23.23.33a1.63 1.63 0 0 0 1.22.52 1.54 1.54 0 0 0 1.33-.7c.14-.22.24-.46.3-.75.08-.28.11-.57.11-.88v-.12Zm7.1-3.24a4.99 4.99 0 0 1 1.11.16l-.15 1.06a5.33 5.33 0 0 0-1.2-.14c-.26 0-.5.03-.71.1a1.65 1.65 0 0 0-.94.69c-.11.15-.2.33-.27.52V161h-1.09v-6.34h1.03l.05.85v.16c.26-.35.57-.62.93-.82.37-.2.78-.3 1.24-.3Zm5.85 6.58c-.44 0-.85-.08-1.23-.23a2.8 2.8 0 0 1-1.58-1.61 3.3 3.3 0 0 1-.22-1.23v-.24c0-.52.08-.97.25-1.37a2.85 2.85 0 0 1 2.64-1.9c.46 0 .86.08 1.2.24a2.41 2.41 0 0 1 1.35 1.65c.12.37.18.78.18 1.22v.5h-4.53v.03c.02.31.08.58.18.82a2.07 2.07 0 0 0 1.02 1.07 2.2 2.2 0 0 0 2.58-.7l.66.52c-.2.32-.52.6-.95.86-.41.24-.93.37-1.55.37Zm-.14-5.69c-.22 0-.43.04-.62.13-.2.07-.37.19-.53.34a2.29 2.29 0 0 0-.62 1.35h3.41v-.05a2 2 0 0 0-.42-1.22 1.51 1.51 0 0 0-1.22-.55Zm8.76 3.89a.75.75 0 0 0-.08-.35.76.76 0 0 0-.25-.28 1.95 1.95 0 0 0-.48-.24c-.2-.07-.45-.14-.75-.2a6.6 6.6 0 0 1-1-.27c-.3-.1-.55-.23-.76-.38a1.63 1.63 0 0 1-.5-.5c-.11-.2-.17-.44-.17-.7 0-.26.06-.5.18-.72.12-.23.3-.42.51-.6a2.86 2.86 0 0 1 1.78-.54c.4 0 .74.05 1.06.16.31.1.58.24.8.42a1.86 1.86 0 0 1 .68 1.4h-1.08a.82.82 0 0 0-.11-.4 1.14 1.14 0 0 0-.3-.35c-.12-.1-.27-.18-.45-.24s-.38-.1-.6-.1c-.23 0-.43.03-.6.08-.18.05-.32.12-.43.2a.85.85 0 0 0-.27.3.75.75 0 0 0-.09.36c0 .12.03.23.07.33.05.1.13.19.25.26.11.08.27.15.46.21.2.07.44.13.74.19.39.08.74.17 1.04.28.31.1.57.24.78.38.21.16.38.33.48.53.12.2.17.43.17.7 0 .27-.06.53-.19.76-.12.23-.3.43-.53.6a3.44 3.44 0 0 1-1.85.51 3.7 3.7 0 0 1-1.15-.17 2.7 2.7 0 0 1-.85-.47 1.77 1.77 0 0 1-.72-1.44h1.09c.01.23.07.42.17.57.1.15.24.28.4.37.15.1.32.16.5.2a2.73 2.73 0 0 0 1.32-.04c.21-.07.38-.17.5-.29a.8.8 0 0 0 .17-.25.7.7 0 0 0 .06-.28Zm5.8 1.8c-.45 0-.86-.08-1.24-.23a2.8 2.8 0 0 1-1.57-1.61 3.29 3.29 0 0 1-.22-1.23v-.24c0-.52.08-.97.24-1.37.17-.41.38-.75.66-1.04a2.85 2.85 0 0 1 1.98-.86 2.54 2.54 0 0 1 2.06.89c.22.28.39.61.5 1 .11.37.17.78.17 1.22v.5h-4.53v.03c.03.31.09.58.18.82a2.07 2.07 0 0 0 1.02 1.07 2.2 2.2 0 0 0 2.58-.7l.67.52c-.21.32-.53.6-.95.86a3.1 3.1 0 0 1-1.55.37Zm-.15-5.69c-.21 0-.42.04-.62.13-.2.07-.37.19-.52.34-.16.16-.3.35-.4.58-.1.22-.18.48-.23.77h3.42v-.05a2 2 0 0 0-.43-1.22 1.51 1.51 0 0 0-1.22-.55Zm4.55 5.57v-6.34h.97l.08.94a2.87 2.87 0 0 1 .66-.66 2.46 2.46 0 0 1 1.31-.4c.34 0 .64.05.9.14a1.74 1.74 0 0 1 1.14 1.2c.1.3.16.67.16 1.1V161h-1.08v-4c0-.28-.03-.52-.1-.72-.06-.2-.15-.35-.27-.47a1.24 1.24 0 0 0-.46-.27 2.04 2.04 0 0 0-1.16.01c-.18.05-.33.13-.48.23a2.19 2.19 0 0 0-.59.67V161h-1.08Zm9.77-7.88v1.54h2.42v.84h-2.42v3.44c0 .25.04.45.1.61a.94.94 0 0 0 .63.59c.15.04.3.06.46.06a4.15 4.15 0 0 0 1.06-.13l.26-.06.15.77c-.1.05-.2.1-.33.14a4.3 4.3 0 0 1-2.2.08 1.65 1.65 0 0 1-.64-.39 1.8 1.8 0 0 1-.42-.67c-.1-.27-.15-.6-.15-1v-3.44h-1.67v-.84h1.67v-1.53h1.08Zm8.81 7.88a1.29 1.29 0 0 1-.1-.3 4.27 4.27 0 0 1-.06-.4 2.93 2.93 0 0 1-1.33.75 2.72 2.72 0 0 1-1.5-.08c-.27-.1-.5-.23-.68-.4a1.72 1.72 0 0 1-.6-1.33c0-.34.07-.65.2-.91.15-.26.34-.48.6-.66.25-.17.56-.3.91-.38.36-.1.76-.13 1.2-.13h1.19v-.5c0-.2-.04-.37-.11-.52a1.12 1.12 0 0 0-.3-.39 1.4 1.4 0 0 0-.47-.25c-.19-.06-.4-.08-.62-.08-.22 0-.41.02-.58.08-.17.05-.31.13-.43.22a1 1 0 0 0-.28.32.82.82 0 0 0-.1.38h-1.08a1.77 1.77 0 0 1 .68-1.28c.21-.18.48-.32.78-.43a3.56 3.56 0 0 1 2.06-.03 1.93 1.93 0 0 1 1.52 2v2.94a4.18 4.18 0 0 0 .23 1.29v.09h-1.13Zm-1.91-.83a2.09 2.09 0 0 0 1.48-.6c.1-.12.2-.24.26-.36v-1.29h-1.01c-.38 0-.7.04-.99.1-.27.07-.5.16-.66.3-.12.09-.2.2-.27.33a1.2 1.2 0 0 0-.01.87c.06.14.14.25.24.34.1.1.24.18.4.23.16.06.34.08.56.08Zm7.52-7.04v1.53h2.41v.84h-2.41v3.44c0 .25.03.45.1.61a.94.94 0 0 0 .63.59c.14.04.3.06.45.06a4.15 4.15 0 0 0 1.06-.13l.26-.06.15.77c-.09.05-.2.1-.32.14a4.3 4.3 0 0 1-2.2.08 1.65 1.65 0 0 1-.64-.39 1.8 1.8 0 0 1-.43-.67c-.1-.27-.15-.6-.15-1v-3.44h-1.67v-.84h1.67v-1.53h1.09Zm4.8 1.53h3.25v5.4H462v.94h-5.31v-.94h2.16v-4.46h-2.16v-.94Zm2.02-1.66c0-.1.02-.19.05-.27a.55.55 0 0 1 .33-.33.77.77 0 0 1 .28-.04c.1 0 .19.01.26.04.08.03.15.07.2.12a.5.5 0 0 1 .14.2c.03.09.05.18.05.28 0 .17-.06.32-.17.44-.1.11-.27.17-.48.17-.22 0-.39-.06-.5-.17a.64.64 0 0 1-.16-.44Zm4.72 4.77c0-.46.07-.88.2-1.27.13-.4.32-.74.57-1.03.25-.28.55-.51.9-.68.36-.16.76-.25 1.2-.25a2.8 2.8 0 0 1 2.13.94c.25.28.44.63.57 1.02.13.4.2.81.2 1.27v.13c0 .46-.07.88-.2 1.27a3.1 3.1 0 0 1-.57 1.02 2.66 2.66 0 0 1-2.1.93c-.46 0-.86-.09-1.22-.25a2.6 2.6 0 0 1-.9-.68 3.04 3.04 0 0 1-.58-1.02c-.13-.39-.2-.81-.2-1.27v-.13Zm1.09.13c0 .31.03.61.1.9.08.28.2.53.35.74a1.58 1.58 0 0 0 1.36.7 1.57 1.57 0 0 0 1.34-.7c.15-.21.26-.46.33-.74.08-.29.11-.59.11-.9v-.13c0-.3-.04-.6-.11-.88a2.33 2.33 0 0 0-.34-.75 1.68 1.68 0 0 0-.57-.51 1.5 1.5 0 0 0-.78-.2c-.3 0-.56.07-.79.2-.22.12-.4.3-.55.5a2.3 2.3 0 0 0-.34.76c-.08.28-.11.57-.11.88v.13Zm6.42 3.1v-6.34h.98l.07.94a2.87 2.87 0 0 1 .66-.66 2.47 2.47 0 0 1 1.31-.4c.34 0 .64.05.9.14.28.1.51.24.7.44.2.2.34.46.45.76.1.3.15.67.15 1.1V161h-1.08v-4c0-.28-.03-.52-.1-.72-.06-.2-.15-.35-.27-.47a1.17 1.17 0 0 0-.46-.27 2.04 2.04 0 0 0-1.16.01c-.17.05-.33.13-.48.23a2.15 2.15 0 0 0-.58.67V161h-1.09Zm15.5-5.4a2.25 2.25 0 0 1 .62-.63c.19-.14.4-.25.62-.32a2.57 2.57 0 0 1 1.62.04c.27.1.5.24.7.44.19.2.34.47.44.78.1.3.16.67.16 1.1V161h-1.09v-4c0-.25-.03-.47-.09-.66a1.1 1.1 0 0 0-.71-.78c-.18-.07-.4-.1-.63-.1a1.85 1.85 0 0 0-1.38.6c-.1.1-.18.21-.26.34v4.6h-1.08v-9h1.08v3.6Zm8.93 5.52c-.45 0-.86-.08-1.24-.23a2.81 2.81 0 0 1-1.57-1.61 3.29 3.29 0 0 1-.22-1.23v-.24c0-.52.08-.97.24-1.37.17-.41.38-.75.66-1.04a2.84 2.84 0 0 1 1.98-.86 2.54 2.54 0 0 1 2.06.89c.22.28.39.61.5 1 .11.37.17.78.17 1.22v.5h-4.53v.03c.03.31.09.58.18.82a2.04 2.04 0 0 0 1.02 1.07 2.2 2.2 0 0 0 2.58-.7l.67.52c-.21.32-.53.6-.95.86a3.1 3.1 0 0 1-1.56.37Zm-.15-5.69c-.21 0-.42.04-.62.13-.2.07-.37.19-.52.34-.16.16-.3.35-.4.58-.1.22-.18.48-.23.77h3.42v-.05a2 2 0 0 0-.12-.63 1.84 1.84 0 0 0-.3-.59 1.51 1.51 0 0 0-1.23-.55Zm8.72 5.57a1.29 1.29 0 0 1-.1-.3 3.94 3.94 0 0 1-.06-.4 3.02 3.02 0 0 1-.8.58 2.83 2.83 0 0 1-1.12.24c-.33 0-.64-.05-.91-.15-.27-.1-.5-.23-.69-.4a1.7 1.7 0 0 1-.6-1.33c0-.34.08-.65.21-.91.14-.26.34-.48.6-.66.25-.17.55-.3.9-.38.37-.1.77-.13 1.2-.13h1.2v-.5c0-.2-.04-.37-.11-.52a1.12 1.12 0 0 0-.3-.39 1.4 1.4 0 0 0-.48-.25 1.98 1.98 0 0 0-.62-.08c-.21 0-.4.02-.58.08-.17.05-.3.13-.43.22-.11.09-.2.2-.27.32a.81.81 0 0 0-.1.38h-1.08c0-.23.06-.46.17-.68.12-.22.29-.43.5-.6.22-.18.48-.32.79-.43a3.56 3.56 0 0 1 2.06-.03 1.93 1.93 0 0 1 1.52 2v2.94a4.07 4.07 0 0 0 .23 1.29v.09h-1.13Zm-1.92-.83a2.1 2.1 0 0 0 1.48-.6c.11-.12.2-.24.26-.36v-1.29h-1c-.38 0-.7.04-.99.1-.28.07-.5.16-.66.3-.12.09-.2.2-.27.33a1.22 1.22 0 0 0-.01.87.9.9 0 0 0 .24.34c.1.1.24.18.4.23.16.06.34.08.55.08Zm4.75-2.4c0-.47.06-.9.18-1.3s.3-.73.51-1.02a2.27 2.27 0 0 1 1.85-.9c.38 0 .71.06 1 .19.28.12.52.3.73.55V152h1.08v9h-1l-.04-.67c-.21.26-.46.45-.76.59-.29.13-.63.2-1.02.2a2.21 2.21 0 0 1-1.84-.93 3.28 3.28 0 0 1-.5-1.02c-.13-.4-.19-.82-.19-1.27v-.12Zm1.09.13c0 .3.03.6.1.88.06.28.17.52.3.73a1.52 1.52 0 0 0 1.31.69c.36 0 .66-.08.9-.25.24-.16.43-.38.57-.66v-2.94a1.8 1.8 0 0 0-.57-.63 1.5 1.5 0 0 0-.89-.26 1.48 1.48 0 0 0-1.31.69c-.14.22-.25.47-.31.75-.07.28-.1.57-.1.88v.12Zm9.13 3.22c-.45 0-.86-.08-1.23-.23a2.81 2.81 0 0 1-1.58-1.61 3.29 3.29 0 0 1-.22-1.23v-.24a3.43 3.43 0 0 1 .9-2.41 2.84 2.84 0 0 1 3.18-.62 2.45 2.45 0 0 1 1.36 1.65c.11.37.17.78.17 1.22v.5h-4.53v.03c.03.31.09.58.18.82a2.06 2.06 0 0 0 1.02 1.07 2.2 2.2 0 0 0 2.58-.7l.67.52c-.21.32-.53.6-.95.86a3.1 3.1 0 0 1-1.55.37Zm-.14-5.69c-.22 0-.43.04-.63.13-.19.07-.37.19-.52.34-.16.16-.3.35-.4.58-.1.22-.18.48-.22.77h3.4v-.05a2 2 0 0 0-.1-.63 1.82 1.82 0 0 0-.32-.59 1.51 1.51 0 0 0-1.21-.55Zm8.7-.89a4.99 4.99 0 0 1 1.11.16l-.15 1.06a5.3 5.3 0 0 0-1.2-.14c-.26 0-.5.03-.71.1a1.65 1.65 0 0 0-.95.69c-.1.15-.19.33-.26.52V161h-1.09v-6.34h1.03l.05.85v.16c.26-.35.57-.62.93-.82.36-.2.78-.3 1.24-.3Zm7.26 4.78a.77.77 0 0 0-.07-.35.76.76 0 0 0-.26-.28 1.94 1.94 0 0 0-.48-.24c-.2-.07-.45-.14-.75-.2a6.6 6.6 0 0 1-1-.27c-.29-.1-.54-.23-.75-.38a1.63 1.63 0 0 1-.5-.5 1.48 1.48 0 0 1 0-1.41c.13-.24.3-.43.51-.6.22-.17.48-.3.78-.4a3.42 3.42 0 0 1 2.06 0c.31.1.58.25.8.43.22.18.38.39.5.63s.18.5.18.77h-1.08a.83.83 0 0 0-.1-.4 1.15 1.15 0 0 0-.3-.35 1.8 1.8 0 0 0-1.06-.34c-.23 0-.43.03-.6.08-.18.05-.32.12-.43.2a.87.87 0 0 0-.27.3.76.76 0 0 0-.01.69c.04.1.13.19.24.26.12.08.27.15.46.21.2.07.44.13.74.19.39.08.74.17 1.05.28.3.1.56.24.78.38.2.16.37.33.48.53a1.55 1.55 0 0 1-.02 1.46c-.13.23-.3.43-.53.6-.23.16-.5.28-.82.37a3.79 3.79 0 0 1-2.18-.03 2.7 2.7 0 0 1-.85-.47 1.77 1.77 0 0 1-.72-1.44h1.08a1.15 1.15 0 0 0 .57.94c.15.1.32.16.5.2a2.72 2.72 0 0 0 1.32-.04c.21-.07.38-.17.5-.29a.8.8 0 0 0 .17-.25.7.7 0 0 0 .06-.28Zm-214.15-50.67a.5.5 0 0 0 0 .7l3.18 3.19a.5.5 0 0 0 .7-.71l-2.82-2.83 2.83-2.83a.5.5 0 0 0-.71-.7l-3.18 3.18Zm.35.85h48v-1h-48v1Zm-.35 47.15a.5.5 0 0 0 0 .7l3.18 3.19a.5.5 0 0 0 .7-.71l-2.82-2.83 2.83-2.83a.5.5 0 0 0-.71-.7l-3.18 3.18Zm.35.85h48v-1h-48v1Z"/>
</svg>
