<svg xmlns="http://www.w3.org/2000/svg" xml:space="preserve" width="100" height="150" viewBox="-40 0 100 150"><path fill="#010101" d="M58.769 89.52c-.613-3.505.204-6.409-1.429-9.914-.816-1.902-.918-1.701.306-3.504.817-1.302 1.429-2.704 1.123-4.206-.613-2.403-1.735-4.406-2.041-7.01-.204-2.303 1.735-4.105 1.735-6.408 0-1.302-1.123-2.403-2.041-3.404v-3.405c3.163-5.607 3.061-12.216 1.733-18.124-.815-3.505-1.122-6.509-.611-10.313.51-3.705-1.939-7.21-.612-10.915.918-2.904 2.55-10.614-.51-12.317H-40v150h96.523s2.245-6.309 1.734-7.009c-.612-.702.307-7.41.511-8.412.611-3.905.204-7.41-.511-11.415-1.326-8.512.307-16.722 1.633-25.233.409-2.704-.408-5.507-1.121-8.411"/></svg>