<svg xmlns="http://www.w3.org/2000/svg" xml:space="preserve" width="100" height="150" viewBox="-40 0 100 150"><path fill="#010101" d="M-35.844 0c-2 2.4-2.9 10.1-3.4 13-.9 5.8-.9 11.7-.5 17.6.301 4.2.9 8.3 1.5 12.3.6 4.2-.3 8.6-.6 12.9-.301 3.5-.5 7.1 1.699 10.1 1.101 1.6-.299 2.4-1.1 3.8-.9 1.7-1.1 3.6-.9 5.5.201 3.5 1.5 6.899 1.4 10.3 0 4.5-1.4 9.1-1.699 13.6-.201 1.601-.9 4-.201 5.5.601 1.4 1.9 2.301 2.9 3.601 1.2 1.399-.3 4.7-.5 6.3-.3 3.7.6 7-.3 10.6-.8 2.9-2 5.2-1.101 8.101.5 1.5 2.601 4.8 1.801 6.3-.5 1.2-1.1 2.2-1.4 3.4-.6 1.699 0 3 1.4 4.1-.301.6.5 2.3.8 2.4v.6H60V0z"/></svg>