<svg xmlns="http://www.w3.org/2000/svg" viewBox="0 0 226.86 200"><defs><linearGradient id="a" x1="66.7" x2="66.7" y1="730.2" y2="701.6" gradientTransform="matrix(7 0 0 7 -353.18 -4908.62)" gradientUnits="userSpaceOnUse"><stop offset="0" stop-color="#2075bc"/><stop offset="1" stop-color="#29aae1"/></linearGradient><linearGradient id="b" x1="54.6" x2="54.6" y1="730.2" y2="701.6" gradientTransform="matrix(7 0 0 7 -353.18 -4908.62)" gradientUnits="userSpaceOnUse"><stop offset="0" stop-color="#0a6aa8"/><stop offset="1" stop-color="#1699c8"/></linearGradient><linearGradient id="c" x1="70.7" x2="70.7" y1="730.2" y2="701.6" gradientTransform="matrix(7 0 0 7 -353.18 -4908.62)" gradientUnits="userSpaceOnUse"><stop offset="0" stop-color="#0a6aa8"/><stop offset="1" stop-color="#1699c8"/></linearGradient></defs><path fill="url(#a)" d="m56.9 0-.36.35L0 22.97V200l56.54-21.55L113.43 200l56.53-21.55 56.9 21.55V22.97L169.96.35l-.35-.35v.35l-56.18 22.27L56.89.35V0zm43.02 42.21c.96.02 1.93.08 2.9.2 7.07 1.76 13.79 4.59 20.86 6 6.36-1.77 14.48-3.53 20.49.7 3.89 3.9 7.77 8.49 6 14.5 10.96 12 34.99 13.42 41.7 22.6 1.06 1.42.36 11.67 2.48 17.68l.7 2.82c-2.12 4.25-7.06 15.9-5.3 13.43-1.76 2.47-3.53 3.18-8.48 2.12a119.1 119.1 0 0 1-11.3 6.71c-4.95 1.06-15.9-2.47-20.85-3.53-9.19-1.77-9.9.35-18.02 4.6-12.02 6-9.55 20.84-14.14 29.33 0 1.06.35 1.76.7 2.82.36 1.06.72 1.77.72 2.47a69.28 69.28 0 0 1-39.58-6.36c-9.54-4.59-17.67-11.66-24.38-20.14 1.41-.7 3.18-1.76 4.59-2.47 1.06-.35 2.12-1.06 2.83-1.41h-1.77c-3.18-.71-1.41-.36-3.89-.36 2.83-3.18 6.72-6 7.07-6.36l.35-.35c-3.53 1.06-8.83 2.47-11.66 5.3 1.06-4.95 4.6-8.13 6.36-12.02a55.3 55.3 0 0 0-12.01 8.13c0-3.88 4.6-7.77 6.71-10.95 1.42-2.12 3.54-3.89 4.6-6.36-4.24 1.41-14.14 6.71-18.02 9.18 1.76-6 9.9-15.19 14.48-19.78-4.59.35-14.13 6-18.02 8.12 0-.35.36-.7 0-1.06 3.18-4.94 12.72-12.72 17.32-16.6-5.3.7-15.9 6.36-20.85 8.12 4.24-7.77 18.37-17.31 25.09-22.96l-16.26 4.24c-2.47 0-4.6 1.76-6.71 1.4 8.48-8.47 25.8-23.31 37.1-30.38 0 0 13.67-9.63 28.19-9.38z"/><path fill="url(#b)" d="M56.9 0 0 22.97V200l56.9-21.55v-37.3a85.99 85.99 0 0 1-2.48-2.99c.76-.38 1.62-.85 2.47-1.33v-2.93c-.2 0-.34.02-.7.02l.7-.75v-3.7a15.56 15.56 0 0 0-4.95 3.04c.83-3.84 3.13-6.61 4.95-9.48v-1.8a54.98 54.98 0 0 0-10.6 7.4c0-3.9 4.6-7.78 6.71-10.96 1.15-1.72 2.76-3.22 3.9-5.04v-1.05c-4.54 1.69-13.62 6.56-17.32 8.91 1.76-6 9.9-15.19 14.48-19.78-4.59.35-14.13 6-18.02 8.12 0-.35.36-.7 0-1.06 3.18-4.94 12.72-12.72 17.32-16.6-5.3.7-15.9 6.36-20.85 8.12 4.1-7.53 17.44-16.68 24.38-22.4v-.38l-15.55 4.06c-2.47 0-4.6 1.76-6.71 1.4a292.75 292.75 0 0 1 22.26-19.6V0z"/><path fill="url(#c)" d="m169.96 0-56.53 22.97V45.6a94.62 94.62 0 0 0 10.25 2.81c6.36-1.77 14.48-3.53 20.49.7 3.89 3.9 7.77 8.49 6 14.5 4.9 5.36 12.4 8.6 19.8 11.38V0zm-26.4 124.82c-4.45.05-6.37 2.03-12.46 5.22-12.02 6-9.55 20.84-14.14 29.33 0 1.06.35 1.76.7 2.82.36 1.06.72 1.77.72 2.47-1.66.22-3.3.37-4.95.47V200l56.53-21.55v-49.48c-4.94 1.06-15.9-2.47-20.84-3.53-2.3-.44-4.07-.64-5.55-.62z"/></svg>
