<svg xmlns="http://www.w3.org/2000/svg" id="my-svg" aria-roledescription="sequence" style="max-width:970px;background-color:transparent" viewBox="-210 -10 970 603">
  <path fill="rgba(0, 0, 255, .1)" d="M-160 291h870v206h-870zm0-216h870v206h-870z" class="rect"/>
  <rect width="250" height="65" x="300" y="517" fill="#eaeaea" stroke="#666" class="actor" rx="3" ry="3"/>
  <text x="425" y="549.5" alignment-baseline="central" class="actor" dominant-baseline="central" style="text-anchor:middle;font-size:16px;font-weight:400">
    <tspan x="425" dy="0">Server</tspan>
  </text>
  <rect width="250" height="65" y="517" fill="#eaeaea" stroke="#666" class="actor" rx="3" ry="3"/>
  <text x="125" y="549.5" alignment-baseline="central" class="actor" dominant-baseline="central" style="text-anchor:middle;font-size:16px;font-weight:400">
    <tspan x="125" dy="0">Client</tspan>
  </text>
  <path id="actor1" stroke="#999" stroke-width=".5" d="M425 5v512" class="200"/>
  <g id="root-1">
    <rect width="250" height="65" x="300" fill="#eaeaea" stroke="#666" class="actor" rx="3" ry="3"/>
    <text x="425" y="32.5" alignment-baseline="central" class="actor" dominant-baseline="central" style="text-anchor:middle;font-size:16px;font-weight:400">
      <tspan x="425" dy="0">Server</tspan>
    </text>
  </g>
  <path id="actor0" stroke="#999" stroke-width=".5" d="M125 5v512" class="200"/>
  <g id="root-0">
    <rect width="250" height="65" fill="#eaeaea" stroke="#666" class="actor" rx="3" ry="3"/>
    <text x="125" y="32.5" alignment-baseline="central" class="actor" dominant-baseline="central" style="text-anchor:middle;font-size:16px;font-weight:400">
      <tspan x="125" dy="0">Client</tspan>
    </text>
  </g>
  <style>
    <![CDATA[#my-svg,#my-svg svg{font-family:"trebuchet ms",verdana,arial,sans-serif;font-size:16px}#my-svg .actor{stroke:#dacef3;fill:#ececff}#my-svg text.actor>tspan{fill:#000;stroke:none}#my-svg .messageLine0{stroke-width:1.5;stroke-dasharray:none;stroke:#333}#my-svg #arrowhead path{fill:#333;stroke:#333}#my-svg,#my-svg #sequencenumber{fill:#333}#my-svg .messageText{fill:#333;stroke:none}#my-svg .note{stroke:#aa3;fill:#fff5ad}#my-svg .noteText,#my-svg .noteText>tspan{fill:#000;stroke:none}#my-svg .activation0{fill:#f4f4f4;stroke:#666}#my-svg :root{--mermaid-font-family:"trebuchet ms",verdana,arial,sans-serif}]]>
  </style>
  <defs>
    <symbol id="computer">
      <path d="M1 1v6.5h10V1H1zm9 5.5H2V2h8v4.5zm-5.11 3 .23-.5h1.76l.24.5H4.88zM12 11H0l1-3h1.05l-.66 2h9.22l-.65-2H11l1 3zM9.5 6h-7V2.5h7V6z"/>
    </symbol>
  </defs>
  <defs>
    <symbol id="database" fill-rule="evenodd" clip-rule="evenodd">
      <path d="M6.13 0h.38l.13.01.12.01h.12l.13.02h.12l.12.02h.12l.12.02.11.01.12.02.11.01.12.02.1.01.12.02.1.02.11.02.1.02.11.02.1.03.1.02.1.02.1.03.1.02.09.03.1.03.08.03.09.02.08.03.09.03.08.03.08.04.08.03.07.03.04.02.04.01.03.02.04.02.03.02.03.01.04.02.03.02.03.02.04.01.03.02.03.02.03.02.03.02.02.01.03.02.03.02.03.02.02.02.03.02.02.02.03.02.02.02.02.02.02.02.03.02.02.02.02.02.02.02.01.02.02.02.02.02.02.02.01.02.02.02.01.03.01.02.02.02.01.02.01.02.01.02.01.02.01.02.01.03v.02l.01.02.01.02v.03l.01.02v.09l.01.02v8.59l-.01.02v.03l-.01.02v.02l-.01.02-.01.02v.03l-.02.02v.02l-.02.02-.01.02-.01.02-.02.02v.03l-.02.02-.02.02-.01.02-.02.02-.02.02-.01.02-.02.02-.02.02-.02.02-.02.02-.03.02-.02.02-.02.02-.02.02-.03.02-.02.02-.03.02-.02.02-.03.02-.03.02-.02.02-.03.01-.03.02-.03.02-.03.02-.03.02-.04.02-.03.01-.03.02-.03.02-.04.02-.03.01-.04.02-.03.02-.04.01-.04.02-.07.03-.08.04-.08.03-.08.03-.08.03-.1.03-.08.03-.09.02-.09.03-.1.03-.09.02-.1.03-.1.02-.1.02-.1.03-.1.02-.1.02-.11.02-.11.02-.11.02-.11.01-.12.02-.11.01-.12.02-.11.01-.12.01-.12.02h-.12l-.12.02h-.12l-.13.01h-.12L6.5 12h-.25l-.13.01h-.64L5.35 12l-.12-.01h-.12l-.13-.01-.12-.01-.12-.01-.12-.02H4.5l-.11-.02-.12-.02-.11-.01-.11-.02-.12-.01-.1-.02-.11-.02-.11-.02-.1-.02-.11-.02-.1-.03-.1-.02-.1-.02-.1-.03-.1-.02-.09-.03-.1-.03-.08-.02-.09-.03-.08-.03-.09-.03-.08-.03-.08-.03-.08-.04-.07-.03-.04-.02-.04-.01-.03-.02-.04-.02-.03-.01-.04-.02-.03-.02-.03-.02-.03-.01-.04-.02-.03-.02-.03-.02-.03-.02-.03-.02-.02-.01-.03-.02-.03-.02-.03-.02-.02-.02-.03-.02-.02-.02-.03-.02-.02-.02-.02-.02-.02-.02-.03-.02-.02-.02-.02-.02-.02-.02-.01-.02-.02-.02-.02-.02-.02-.02-.01-.02-.02-.02-.01-.02-.01-.03-.02-.02-.01-.02-.01-.02-.01-.02-.01-.02-.01-.02-.01-.03v-.02l-.01-.02-.01-.02v-.03L1 10.37V1.66l.01-.02v-.02l.01-.03v-.02l.01-.02.01-.02V1.5l.02-.03v-.02l.02-.02v-.02l.02-.02.01-.02.02-.02.01-.03.02-.02.01-.02.02-.02.02-.02.01-.02.02-.02.02-.02.02-.02.02-.02.02-.02.03-.02.02-.02.02-.02.03-.02.02-.02.03-.02.02-.02.03-.02.03-.02.02-.02.03-.01.03-.02.03-.02.03-.02.03-.02.04-.01.03-.02.03-.02.03-.02.04-.02.03-.01.04-.02.03-.02.04-.01.04-.02.07-.03.08-.03.08-.04.08-.03.08-.03.1-.03.08-.02.09-.03.09-.03.1-.03L3 .35l.1-.03.1-.02.1-.02.1-.03.1-.02.1-.02.11-.02.11-.02.11-.02.11-.01.12-.02.11-.01.12-.02.11-.01.12-.01.12-.02h.12L5 .02h.13l.12-.01h.12L5.5 0h.63zM1.5 10.25v.05h.01v.03l.01.01v.01l.01.01.01.02.02.02v.01l.01.01.01.01.01.02.01.01.02.01v.01l.03.03.03.02.03.03.03.02.04.03.04.03.04.02.04.03.04.02.05.03.05.03.05.02.05.03.06.02.05.03.06.02.06.03.07.02.06.03.07.02.07.03.07.02.08.03.07.02.08.02.08.03.08.02.08.02.09.02.09.02.09.02.09.02.1.02.09.02.1.02.1.01.1.02.1.02.1.01.1.02.11.01.11.01.11.01.12.01.11.01.12.01.12.01.12.01h.12l.12.01h.38l.13.01h.51l.12-.02h.25l.12-.02h.11l.12-.02h.11l.11-.02.11-.01.11-.01.1-.02.11-.01.1-.02.1-.02.1-.01.1-.02.1-.02.09-.02.1-.02.08-.02.09-.02.08-.02.09-.02.08-.03.08-.02.08-.02.07-.03.08-.02.07-.02.07-.03.07-.02.06-.03.07-.02.06-.03.06-.02.05-.03.06-.03.05-.02.05-.03.05-.02.05-.03.04-.03.04-.02.04-.03.04-.02.03-.03.03-.02.03-.03.03-.03.03-.02v-.01l.02-.01.01-.02h.01l.01-.02.01-.01v-.02h.02v-.03l.01-.01.01-.01v-.02l.01-.02v-.04l.01-.01V8.19l-.04.02-.04.03-.04.03-.04.02-.05.03-.04.03-.05.02-.04.03-.05.02-.05.03-.05.02-.06.02-.05.03-.05.02-.06.02-.06.03-.05.02-.06.02-.06.02-.06.02-.07.02-.06.02-.06.02-.07.02-.06.02-.07.02-.07.02-.07.02-.07.02-.07.02-.07.01-.07.02-.08.01-.07.02-.07.02-.08.01-.08.01-.07.02-.08.01-.08.01-.08.02-.08.01-.08.01-.08.01-.09.01-.08.01-.08.01-.09.01-.08.01h-.09l-.08.01-.09.01H7l-.08.01-.1.01h-.18l-.08.01h-.18l-.1.01h-.82l-.09-.01h-.09l-.09-.01H5.1L5 9.13h-.08l-.09-.02h-.08l-.09-.01h-.08l-.09-.02h-.08l-.08-.02h-.09l-.08-.02-.08-.01H4l-.08-.01L3.84 9h-.08l-.07-.01-.08-.02-.07-.01-.08-.02-.07-.01-.08-.02-.07-.02-.07-.01-.07-.02-.07-.02-.07-.02-.07-.02-.07-.02-.06-.01-.07-.02-.06-.02-.06-.02-.07-.03-.06-.02-.06-.02-.05-.02-.06-.02-.06-.03-.06-.02-.05-.02-.05-.03-.06-.02-.05-.02-.05-.03-.05-.02-.04-.03-.05-.02-.04-.03-.05-.03-.04-.02-.04-.03-.04-.03-.04-.02v2.06zm0-2.83v.05l.01.01v.02l.01.02.01.02.01.01v.01l.02.01v.01l.01.02h.01l.01.02.01.01.02.01v.02l.03.02.03.03.03.02.03.03.04.02.04.03.04.02.04.03.04.03.05.02.05.03.05.02.05.03.06.03.05.02.06.03.06.02.07.03.06.02.07.03.07.02.07.03.08.02.07.02.08.03.08.02.08.02.08.02.09.02.09.03.09.02.09.02.1.01.09.02.1.02.1.02.1.01.1.02.1.02.1.01.11.01.11.02h.11l.12.02h.11l.12.02h.12l.12.01h.12l.12.01h.13l.12.01h.77l.12-.01h.13l.12-.02H7l.11-.01.12-.01.11-.01.11-.02h.11l.11-.02.1-.02.11-.01.1-.02.1-.01.1-.02.1-.02.1-.02.09-.02.1-.02.08-.02.09-.02.08-.02.09-.02.08-.02.08-.03.08-.02.07-.02.08-.03.07-.02.07-.03.07-.02.06-.03.07-.02.06-.03.06-.02L9.8 8h.07l.05-.03.05-.03.05-.02.05-.03.04-.02.04-.03.04-.03.04-.02.03-.03.03-.02.03-.03.03-.02.03-.03v-.01l.02-.01.01-.02h.01l.01-.02.01-.01v-.01l.02-.01v-.02l.01-.02.01-.01V7.5l.01-.01v-.04l.01-.02V5.35l-.04.03-.04.03-.04.02-.04.03-.05.03-.04.02-.05.03-.04.02-.05.03-.05.02-.05.03-.06.02-.05.03-.05.02-.06.02-.06.02-.05.03-.06.02-.06.02-.06.02-.07.02-.06.02-.06.02-.07.02-.06.02-.07.02-.07.02-.07.02-.07.02-.07.01-.07.02-.07.02-.08.01-.07.02-.07.01-.08.02-.08.01-.07.02h-.08l-.08.02L8 6.2l-.08.02h-.08l-.08.02h-.09l-.08.02h-.08l-.09.02h-.08l-.09.01-.08.01H7l-.08.01h-.1l-.08.01h-.18l-.1.01h-.27l-.09.01h-.56l-.09-.01h-.18l-.09-.01H5.1L5 6.3h-.16l-.08-.01-.09-.01-.08-.01-.09-.01-.08-.01-.08-.01-.09-.01-.08-.01-.08-.01L4 6.19h-.08l-.08-.02-.08-.01-.07-.02-.08-.01-.07-.02-.08-.01-.07-.02-.08-.01-.07-.02-.07-.02-.07-.02L3.03 6l-.07-.02-.07-.02-.07-.02-.06-.02-.07-.02-.06-.02-.06-.02-.07-.02-.06-.02-.06-.02-.05-.02-.06-.03-.06-.02-.06-.02-.05-.02-.05-.03-.06-.02-.05-.03-.05-.02-.05-.03-.04-.02-.05-.03-.04-.02-.05-.03-.04-.03-.04-.02-.04-.03-.04-.03v2.07zm0-2.83v.05h.01v.03l.01.01v.01l.01.01.01.02.02.02v.01l.01.01.01.01.01.02.01.01.02.01v.01l.03.03.03.02.03.03.03.02.04.03.04.03.04.02.04.03.04.02.05.03.05.03.05.02.05.03.06.02.05.03.06.02.06.03.07.02.06.03.07.02.07.03.07.02.08.03.07.02.08.02.08.03.08.02.08.02.09.02.09.02.09.02.09.02.1.02.09.02.1.02.1.01.1.02.1.02.1.01.1.02.11.01.11.01.11.01.12.01.11.01.12.01.12.01.12.01h.12l.12.01h.38l.13.01h.51l.12-.01.13-.01h.12L7 5.8h.11l.12-.01.11-.01.11-.02.11-.01.11-.01.1-.02.11-.01.1-.02.1-.02.1-.01.1-.02.1-.02.09-.02.1-.02.08-.02.09-.02.08-.02.09-.02.08-.03.08-.02.08-.02.07-.03.08-.02.07-.02.07-.03.07-.02.06-.03.07-.02.06-.03.06-.02.05-.03.06-.03.05-.02.05-.03.05-.02.05-.03.04-.03.04-.02.04-.03.04-.02.03-.03.03-.02.03-.03.03-.03.03-.02V4.8l.02-.02h.01l.01-.02.01-.01.01-.01v-.01l.02-.02V4.7l.01-.01.01-.01v-.02l.01-.02V4.6l.01-.01V2.51l-.04.03-.04.03-.04.02-.04.03-.05.03-.04.02-.05.03-.04.02-.05.03-.05.02-.05.03-.06.02-.05.02-.05.03-.06.02-.06.02-.05.03-.06.02-.06.02L9.5 3l-.07.02-.06.02-.06.02-.07.02-.06.02-.07.02-.07.02-.07.02-.07.01-.07.02-.07.02-.07.02-.08.01-.07.02-.07.01-.08.02-.08.01-.07.02h-.08l-.08.02-.08.01-.08.02h-.08l-.08.02h-.09l-.08.02h-.08l-.09.02h-.08l-.09.01-.08.01h-.09L7 3.48h-.18l-.08.01h-.1l-.08.01H5.54l-.09-.01h-.18l-.09-.01H5.1L5 3.46l-.08-.01h-.09l-.08-.01-.09-.01-.08-.01-.09-.01-.08-.01-.08-.01-.09-.01-.08-.01-.08-.01L4 3.35h-.08l-.08-.02-.08-.01-.07-.02-.08-.01-.07-.02-.08-.01-.07-.02-.08-.01-.07-.02-.07-.02-.07-.01-.07-.02-.07-.02-.07-.02-.07-.02-.06-.02-.07-.02-.06-.02-.06-.02L2.5 3l-.07-.02-.06-.02-.05-.02-.06-.03-.06-.02-.06-.02-.05-.03-.05-.02-.06-.02-.05-.03-.05-.02-.05-.03-.04-.02-.05-.03-.04-.02-.05-.03-.04-.03-.04-.02-.04-.03-.04-.03V4.6zM5.87.5h-.38l-.12.01-.13.01h-.12L5 .55h-.1l-.12.02h-.11l-.11.02-.11.01-.11.01-.1.02-.11.01-.1.02-.1.02-.1.01-.1.02-.1.02-.09.02-.1.02-.08.02-.09.02-.08.02-.09.02-.08.03-.08.02-.08.02-.07.03-.08.02-.07.02-.07.03-.07.02-.06.03-.06.02-.07.03-.05.02-.06.03-.06.03-.05.02-.05.03-.05.03-.04.02-.05.03-.04.02-.04.03-.04.02-.03.03-.03.03-.03.02-.03.03-.03.02v.01l-.02.01-.01.02-.01.01-.01.01-.01.01v.01l-.02.02v.02l-.01.01-.01.01v.02l-.01.02v.04l-.01.01v.05l.01.01v.01l.01.02.01.02v.01l.01.01.01.01.01.02h.01v.02l.02.01v.01l.02.02h.01l.03.03.03.03.03.02.03.03.03.02.04.03.04.03.04.02.04.03.05.02.05.03.05.03.05.02.06.03.05.02.06.03.06.03.07.02.06.03.07.02.07.03.07.02.08.02.07.03.08.02.08.02.08.03.09.02.08.02.09.02.09.02.09.02.1.02.09.02.1.02.1.01.1.02.1.02.1.01.11.02h.1l.12.02.11.01.11.01.12.01.11.01.12.01h.12l.13.01.12.01h.25l.13.01h.64L6.64 3l.13-.01h.12L7 2.95h.11l.12-.01.11-.02h.11l.11-.02.11-.01.1-.02.11-.01.1-.02.1-.02.1-.01.1-.02.1-.02.09-.02.1-.02.08-.02.09-.02.08-.02.09-.02.08-.03.08-.02.08-.02.07-.03.08-.02.07-.02.07-.03.07-.02.06-.03.07-.02.06-.03.06-.02.05-.03.06-.03.05-.02.05-.03.05-.02.05-.03.04-.03.04-.02.04-.03.04-.02.03-.03.03-.03.03-.02.03-.03.03-.02v-.01l.02-.02h.01l.01-.02.01-.01.01-.01v-.02h.02v-.03l.02-.01V1.8h.01v-.04l.01-.02V1.7l-.01-.01v-.01l-.01-.02-.01-.02v-.01l-.01-.01-.01-.01-.01-.02-.02-.02v-.01l-.02-.01-.01-.02h-.01l-.03-.03-.03-.03-.03-.02-.03-.03-.03-.02-.04-.03-.04-.03-.04-.02-.04-.03-.05-.02-.05-.03-.05-.03-.05-.02-.06-.03-.05-.02-.06-.03-.06-.03-.07-.02-.06-.03-.07-.02-.07-.03L9.3.96 9.22.94 9.15.9h-.08L8.99.87 8.91.84 8.82.82 8.74.8 8.65.78 8.56.76 8.47.74l-.1-.02L8.29.7l-.1-.02-.1-.01-.1-.02-.1-.02-.1-.01L7.67.6h-.1L7.44.58l-.1-.01-.11-.01L7.1.54H7L6.88.53 6.76.52h-.13L6.51.5h-.64z"/>
    </symbol>
  </defs>
  <defs>
    <symbol id="clock">
      <path d="M6 1a5 5 0 1 1-.01 10.01A5 5 0 0 1 6 1zm0-1a6 6 0 1 0 0 12A6 6 0 0 0 6 0zm2.92 6.23c.1.02.1.17 0 .18-.95.19-3.02.56-3.27.56A.65.65 0 0 1 5 6.32c0-.26.38-2.72.56-3.72.02-.1.16-.1.18 0l.49 3.12 2.7.5z"/>
    </symbol>
  </defs>
  <defs>
    <marker id="arrowhead" markerHeight="12" markerUnits="userSpaceOnUse" markerWidth="12" orient="auto" refX="7.9" refY="5">
      <path d="m0 0 10 5-10 5z"/>
    </marker>
  </defs>
  <defs>
    <marker id="filled-head" markerHeight="28" markerWidth="20" orient="auto" refX="15.5" refY="7">
      <path d="m18 7-9 6 5-6-5-6Z"/>
    </marker>
  </defs>
  <defs>
    <marker id="sequencenumber" markerHeight="40" markerWidth="60" orient="auto" refX="15" refY="15">
      <circle cx="15" cy="15" r="6"/>
    </marker>
  </defs>
  <rect width="10" height="91" x="420" y="131" fill="#EDF2AE" stroke="#666" class="activation0" rx="0" ry="0"/>
  <rect width="250" height="39" x="450" y="139" fill="#EDF2AE" stroke="#666" class="note" rx="0" ry="0"/>
  <text x="460" y="144" alignment-baseline="middle" class="noteText" dominant-baseline="middle" dy="1em" style="font-size:16px;font-weight:400">
    <tspan x="460">Establish connection</tspan>
  </text>
  <rect width="250" height="39" x="-150" y="232" fill="#EDF2AE" stroke="#666" class="note" rx="0" ry="0"/>
  <text x="-140" y="237" alignment-baseline="middle" class="noteText" dominant-baseline="middle" dy="1em" style="font-size:16px;font-weight:400">
    <tspan x="-140">Close connection</tspan>
  </text>
  <rect width="10" height="91" x="420" y="347" fill="#EDF2AE" stroke="#666" class="activation0" rx="0" ry="0"/>
  <rect width="250" height="39" x="450" y="355" fill="#EDF2AE" stroke="#666" class="note" rx="0" ry="0"/>
  <text x="460" y="360" alignment-baseline="middle" class="noteText" dominant-baseline="middle" dy="1em" style="font-size:16px;font-weight:400">
    <tspan x="460">Establish connection</tspan>
  </text>
  <rect width="250" height="39" x="-150" y="448" fill="#EDF2AE" stroke="#666" class="note" rx="0" ry="0"/>
  <text x="-140" y="453" alignment-baseline="middle" class="noteText" dominant-baseline="middle" dy="1em" style="font-size:16px;font-weight:400">
    <tspan x="-140">Close connection</tspan>
  </text>
  <text x="274" y="100" alignment-baseline="middle" class="messageText" dominant-baseline="middle" dy="1em" style="font-size:16px;font-weight:400" text-anchor="middle">Request</text>
  <path stroke-width="2" marker-end="url(#arrowhead)" d="M126 129h295" class="messageLine0" style="fill:none"/>
  <text x="275" y="193" alignment-baseline="middle" class="messageText" dominant-baseline="middle" dy="1em" style="font-size:16px;font-weight:400" text-anchor="middle">Response</text>
  <path stroke-width="2" marker-end="url(#arrowhead)" d="M420 222H129" class="messageLine0" style="fill:none"/>
  <text x="274" y="316" alignment-baseline="middle" class="messageText" dominant-baseline="middle" dy="1em" style="font-size:16px;font-weight:400" text-anchor="middle">Request</text>
  <path stroke-width="2" marker-end="url(#arrowhead)" d="M126 345h295" class="messageLine0" style="fill:none"/>
  <text x="275" y="409" alignment-baseline="middle" class="messageText" dominant-baseline="middle" dy="1em" style="font-size:16px;font-weight:400" text-anchor="middle">Response</text>
  <path stroke-width="2" marker-end="url(#arrowhead)" d="M420 438H129" class="messageLine0" style="fill:none"/>
</svg>
